<svg width="58" height="58" viewBox="0 0 58 58" fill="none" xmlns="http://www.w3.org/2000/svg">
<g clip-path="url(#clip0_22_75)">
<path d="M0 4.80302V5.26399V32.0924L4.05653 34.6739L16.4105 15.2209L0 4.80302Z" fill="#243C66"/>
<path d="M57.1605 5.26399V4.80302L40.75 15.2209L53.104 34.6739L57.1605 32.0924V5.26399Z" fill="#0097DD"/>
<path d="M46.5582 38.6383C50.0616 36.4256 50.9835 31.6316 48.5865 27.9438L45.6362 23.3341C43.2392 19.6463 38.5373 18.4478 35.0339 20.6605L24.5238 27.2984C21.0205 29.5111 20.0985 34.3052 22.4956 37.9929L25.4458 42.6026C27.8428 46.2904 32.5447 47.4889 36.0481 45.2763L46.5582 38.6383Z" fill="#E29D81"/>
<path d="M45.2672 39.468C46.5579 38.6382 46.9267 36.8866 46.097 35.5958C45.2672 34.3051 43.5155 33.9363 42.2248 34.7661L22.8641 47.0279C21.5734 47.8576 21.2046 49.6093 22.0344 50.9C22.8641 52.1908 24.6158 52.5595 25.9065 51.7298L45.2672 39.468Z" fill="#E29D81"/>
<path d="M22.5874 37.9927L25.5376 42.6024C27.9347 46.2901 32.6365 47.4886 36.1399 45.276L46.65 38.638C50.1534 36.4254 51.0753 31.6313 48.6783 27.9435L45.7281 23.3338" fill="#D3856A"/>
<path d="M33.2819 34.9515C34.5726 34.1217 34.9414 32.37 34.1116 31.0793C33.2819 29.7886 31.5302 29.4198 30.2395 30.2496L10.8788 42.6036C9.58804 43.4333 9.21926 45.185 10.049 46.4757C10.8788 47.7664 12.6304 48.1352 13.9212 47.3055L33.2819 34.9515Z" fill="#E29D81"/>
<path d="M37.338 38.6389C38.6288 37.8092 38.9975 36.0575 38.1678 34.7668C37.338 33.4761 35.5864 33.1073 34.2956 33.937L14.9349 46.291C13.6442 47.1208 13.2754 48.8724 14.1052 50.1632C14.9349 51.4539 16.6866 51.8227 17.9773 50.9929L37.338 38.6389Z" fill="#E29D81"/>
<path d="M33.1896 28.5896C34.4803 27.7598 34.8491 26.0081 34.0193 24.7174C33.1896 23.4267 31.4379 23.0579 30.1472 23.8877L10.7865 36.2417C9.49575 37.0714 9.12698 38.8231 9.95672 40.1138C10.7865 41.4045 12.5382 41.7733 13.8289 40.9436L33.1896 28.5896Z" fill="#E29D81"/>
<path d="M37.0615 19.7391C37.0615 19.7391 26.1826 21.3064 25.2607 21.583C24.4309 21.8596 21.8495 28.1288 24.7997 28.8663C27.8421 29.6039 32.6362 25.7317 32.6362 25.7317L37.0615 19.7391Z" fill="#E29D81"/>
<path d="M42.5991 16.2783L39.7202 18.1088L50.4066 34.9151L53.2855 33.0845L42.5991 16.2783Z" fill="white"/>
<path d="M42.5934 16.3275L39.7354 18.1714L50.4299 34.9507" fill="#DFE2E5"/>
<path d="M57.1605 4.80302L40.75 15.2209L53.104 34.6739" fill="#00AEFF"/>
<path d="M46.2815 42.5104L44.5298 41.4041C45.5439 41.4962 46.6503 41.0353 47.2034 40.1133C48.0332 38.8226 47.6644 37.0709 46.3737 36.2412L33.4665 28.0359C34.3885 26.0999 32.5446 21.9511 31.8992 21.6745C31.0695 21.398 21.1126 20.0151 20.1906 19.8307C17.056 18.9087 13.4605 20.2916 11.5244 23.334L8.57417 27.9437C6.17713 31.6315 7.09907 36.4256 10.6024 38.6382L11.4322 39.1914C11.5244 39.2836 11.7088 39.468 11.8932 39.5602L31.2539 51.9142C32.5446 52.7439 34.2963 52.3751 35.126 51.0844C35.587 50.3469 35.6792 49.5171 35.4026 48.7796L39.0904 51.1766C40.3811 52.0064 42.1328 51.6376 42.9625 50.3469C43.6079 49.4249 43.5157 48.2264 42.9625 47.3967L43.1469 47.4889C44.4376 48.3186 46.1893 47.9498 47.0191 46.6591C48.0332 45.0918 47.6644 43.3401 46.2815 42.5104Z" fill="#F9BDA0"/>
<path d="M32.1759 50.8076C31.6227 50.4388 31.4383 49.7935 31.8071 49.2403L32.1759 48.595C32.5446 48.0418 33.19 47.8574 33.7432 48.2262C34.2963 48.595 34.4807 49.2403 34.1119 49.7935L33.7432 50.4388C33.4666 50.992 32.729 51.1764 32.1759 50.8076Z" fill="#FFE4C7"/>
<path d="M44.1612 46.2903C43.6081 45.9215 43.4237 45.2761 43.7924 44.723L44.1612 44.0776C44.53 43.5244 45.1754 43.3401 45.7285 43.7088C46.2817 44.0776 46.4661 44.723 46.0973 45.2761L45.7285 45.9215C45.4519 46.4746 44.7144 46.659 44.1612 46.2903Z" fill="#FFE4C7"/>
<path d="M40.1046 49.9777C39.5514 49.6089 39.367 48.9636 39.7358 48.4104L40.1046 47.765C40.4734 47.2119 41.1187 47.0275 41.6719 47.3963C42.225 47.765 42.4094 48.4104 42.0407 48.9636L41.6719 49.6089C41.3031 50.1621 40.6577 50.3465 40.1046 49.9777Z" fill="#FFE4C7"/>
<path d="M44.2535 40.0211C43.7003 39.6523 43.516 39.007 43.8847 38.4538L44.2535 37.8085C44.6223 37.2553 45.2676 37.0709 45.8208 37.4397C46.374 37.8085 46.5584 38.4538 46.1896 39.007L45.913 39.6523C45.5442 40.2055 44.8067 40.2977 44.2535 40.0211Z" fill="#FFE4C7"/>
<path d="M3.85373 33.1251L6.73242 34.9552L17.4162 18.1498L14.5375 16.3197L3.85373 33.1251Z" fill="white"/>
<path d="M14.5665 16.3275L17.4245 18.1714L6.72998 34.9507" fill="#DFE2E5"/>
<path d="M0 4.80302L16.4105 15.2209L4.05653 34.6739" fill="#1A2B49"/>
<path d="M6.45356 22.5045C5.9004 23.4264 4.70188 23.6108 3.87213 23.0577C2.95019 22.5045 2.7658 21.306 3.31897 20.4762C3.87213 19.5543 5.07065 19.3699 5.9004 19.9231C6.73014 20.4762 7.00673 21.6747 6.45356 22.5045Z" fill="#FFC114"/>
<path d="M46.3737 36.1488L33.4665 27.9435C34.3885 26.0074 32.5446 21.8587 31.8992 21.5821C31.5305 21.3977 28.949 21.0289 26.2754 20.6602L23.3252 29.8796L47.5722 37.6239C47.3878 37.0707 47.019 36.5175 46.3737 36.1488Z" fill="#E8AB92"/>
<path d="M34.1116 22.2274C34.9413 23.6103 35.3101 27.2059 34.2038 27.8513L24.8922 29.8795C23.7858 30.5249 22.3107 29.8795 21.481 28.5888C20.6512 27.2059 20.9278 25.6386 22.0342 24.9932L28.6721 21.1211C29.7784 20.4757 33.1896 20.6601 34.0194 21.9508L34.1116 22.2274Z" fill="#E29D81"/>
</g>
<defs>
<clipPath id="clip0_22_75">
<rect width="57.1603" height="57.1603" fill="white"/>
</clipPath>
</defs>
</svg>
