<svg width="27" height="18" viewBox="0 0 27 18" fill="none" xmlns="http://www.w3.org/2000/svg">
<path fill-rule="evenodd" clip-rule="evenodd" d="M26.1056 12.0158C26.1056 15.1898 23.5345 17.7625 20.3601 17.7625C20.1814 17.7625 20.0143 17.7253 19.8403 17.7091V17.7625H5.22112C2.33674 17.7625 0 15.4243 0 12.5382C0 10.3603 1.33197 8.49581 3.22549 7.71101C3.16516 7.4138 3.13267 7.10731 3.13267 6.79154C3.13267 4.19566 5.23504 2.0897 7.83168 2.0897C9.05226 2.0897 10.1545 2.56801 10.9899 3.33192C11.9042 1.36759 13.8766 0 16.1855 0C19.3576 0 21.9287 2.57498 21.9287 5.74668C21.9287 5.99977 21.8869 6.24357 21.8521 6.48969C24.2979 7.14911 26.1056 9.36187 26.1056 12.0158Z" fill="#E4F2FC"/>
</svg>
