<svg width="22" height="22" viewBox="0 0 22 22" fill="none" xmlns="http://www.w3.org/2000/svg">
<path fill-rule="evenodd" clip-rule="evenodd" d="M5.15805 18.4508L3.67757 19.9322C3.26916 20.3432 3.26684 21.0026 3.67293 21.4066C4.07901 21.8129 4.73804 21.8106 5.14644 21.4043L6.62692 19.9229C7.03533 19.5143 7.03765 18.8525 6.63156 18.4462C6.22547 18.0399 5.56645 18.0422 5.15805 18.4508ZM4.18569 12.5346C4.18569 11.9611 3.71695 11.4967 3.13915 11.4967H1.04838C0.468252 11.4967 -0.000488281 11.9611 -0.000488281 12.5346C-0.000488281 13.1104 0.468252 13.5748 1.04838 13.5748H3.13915C3.71695 13.5748 4.18569 13.1104 4.18569 12.5346ZM12.5396 5.23689C8.50891 5.23689 5.24397 8.50612 5.24397 12.5346C5.24397 14.8844 6.37173 16.9508 8.09354 18.2859C8.51123 17.8935 9.00085 17.5917 9.52297 17.3386C9.47888 17.1203 9.47192 16.8905 9.45335 16.6629C8.18172 15.7156 7.32313 14.2458 7.32313 12.5346C7.32313 9.65313 9.65523 7.31499 12.5396 7.31499C14.8648 7.31499 16.8117 8.84976 17.4846 10.9534C17.9325 11.1531 18.3432 11.4131 18.7191 11.7173C18.9581 11.3156 19.2296 10.9395 19.5406 10.5958C18.6866 7.51467 15.8927 5.23689 12.5396 5.23689ZM21.399 3.66966C20.9929 3.26332 20.3316 3.26565 19.9232 3.67662L18.445 5.15799C18.0366 5.56432 18.0343 6.22374 18.4404 6.63007C18.8441 7.0364 19.5078 7.03408 19.9139 6.62542L21.3944 5.14638C21.8028 4.73773 21.8051 4.07599 21.399 3.66966ZM5.15805 6.62076C5.56645 7.02941 6.22547 7.03174 6.63156 6.6254C7.03765 6.22139 7.03533 5.55733 6.62692 5.151L5.14644 3.66963C4.73804 3.26098 4.07901 3.25866 3.67293 3.66499C3.26684 4.07132 3.26916 4.73074 3.67757 5.14171L5.15805 6.62076ZM12.5393 4.18509C13.1125 4.18509 13.5766 3.71607 13.5766 3.13792V1.04589C13.5766 0.465419 13.1125 -0.00128174 12.5393 -0.00128174C11.9662 -0.00128174 11.4974 0.465419 11.4974 1.04589V3.13792C11.4974 3.71607 11.9662 4.18509 12.5393 4.18509Z" fill="#F8E71C"/>
</svg>
