<svg width="418" height="164" viewBox="0 0 418 164" fill="none" xmlns="http://www.w3.org/2000/svg">
<g filter="url(#filter0_d_22_61)">
<rect width="379.57" height="125.239" transform="translate(19.04 15.8668)" fill="white"/>
<rect opacity="0.1" x="19.3612" y="16.1879" width="378.928" height="124.597" fill="white" stroke="#1A2B49" stroke-width="0.64225"/>
<path fill-rule="evenodd" clip-rule="evenodd" d="M135.287 94.8636C135.287 93.4448 136.437 92.2946 137.856 92.2946H222.633C224.052 92.2946 225.202 93.4448 225.202 94.8636V116.7C225.202 118.119 224.052 119.269 222.633 119.269H137.856C136.437 119.269 135.287 118.119 135.287 116.7V94.8636Z" fill="#00AEFF"/>
<path d="M169.122 108.912C170.488 108.912 171.459 108.193 171.459 106.979C171.459 105.649 170.389 105.316 169.436 105.028C168.456 104.731 168.303 104.534 168.303 104.246C168.303 103.994 168.528 103.769 168.978 103.769C169.553 103.769 169.85 104.048 170.066 104.498L171.28 103.787C170.821 102.861 170.012 102.367 168.978 102.367C167.89 102.367 166.865 103.068 166.865 104.282C166.865 105.487 167.782 105.936 168.717 106.197C169.661 106.458 170.021 106.611 170.021 106.997C170.021 107.24 169.85 107.51 169.166 107.51C168.456 107.51 168.07 107.159 167.845 106.638L166.604 107.357C166.955 108.283 167.8 108.912 169.122 108.912ZM172.776 103.895C173.217 103.895 173.586 103.527 173.586 103.086C173.586 102.645 173.217 102.277 172.776 102.277C172.336 102.277 171.967 102.645 171.967 103.086C171.967 103.527 172.336 103.895 172.776 103.895ZM172.102 108.787H173.451V104.291H172.102V108.787ZM177.706 104.291V104.749C177.41 104.381 176.978 104.165 176.394 104.165C175.117 104.165 174.182 105.208 174.182 106.449C174.182 107.69 175.117 108.733 176.394 108.733C176.978 108.733 177.41 108.517 177.706 108.148V108.562C177.706 109.2 177.32 109.524 176.69 109.524C176.097 109.524 175.836 109.272 175.665 108.957L174.514 109.623C174.928 110.36 175.71 110.711 176.645 110.711C177.841 110.711 179.019 110.072 179.019 108.562V104.291H177.706ZM176.618 107.492C175.98 107.492 175.53 107.069 175.53 106.449C175.53 105.828 175.98 105.406 176.618 105.406C177.257 105.406 177.706 105.828 177.706 106.449C177.706 107.069 177.257 107.492 176.618 107.492ZM182.612 104.165C182.018 104.165 181.569 104.381 181.326 104.713V104.291H179.977V108.787H181.326V106.332C181.326 105.693 181.668 105.406 182.162 105.406C182.594 105.406 182.944 105.667 182.944 106.224V108.787H184.293V106.026C184.293 104.812 183.52 104.165 182.612 104.165ZM187.45 102.493V108.787H188.888V102.493H187.45ZM192.528 104.165C191.934 104.165 191.485 104.381 191.242 104.713V104.291H189.893V108.787H191.242V106.332C191.242 105.693 191.584 105.406 192.078 105.406C192.51 105.406 192.861 105.667 192.861 106.224V108.787H194.209V106.026C194.209 104.812 193.436 104.165 192.528 104.165Z" fill="white"/>
<path d="M232.267 92.6159H317.043C318.285 92.6159 319.291 93.6224 319.291 94.8639V116.7C319.291 117.941 318.285 118.948 317.043 118.948H232.267C231.026 118.948 230.019 117.941 230.019 116.7V94.8639C230.019 93.6224 231.026 92.6159 232.267 92.6159Z" stroke="#1A2B49" stroke-width="0.64225"/>
<path d="M261.466 108.144H263.013L261.673 105.834C262.366 105.483 262.833 104.781 262.833 104.008C262.833 102.812 261.871 101.85 260.675 101.85H258.158V108.144H259.596V106.076H260.28L261.466 108.144ZM259.596 103.199H260.675C261.071 103.199 261.395 103.55 261.395 104.008C261.395 104.467 261.071 104.817 260.675 104.817H259.596V103.199ZM264.59 106.436H267.782C267.818 106.265 267.836 106.085 267.836 105.896C267.836 104.539 266.865 103.523 265.552 103.523C264.131 103.523 263.16 104.557 263.16 105.896C263.16 107.236 264.113 108.27 265.651 108.27C266.505 108.27 267.17 107.955 267.611 107.344L266.532 106.724C266.352 106.921 266.037 107.065 265.669 107.065C265.174 107.065 264.761 106.903 264.59 106.436ZM264.563 105.429C264.689 104.97 265.03 104.719 265.543 104.719C265.947 104.719 266.352 104.907 266.496 105.429H264.563ZM271.825 103.649V104.107C271.529 103.738 271.097 103.523 270.513 103.523C269.236 103.523 268.301 104.566 268.301 105.807C268.301 107.047 269.236 108.09 270.513 108.09C271.097 108.09 271.529 107.875 271.825 107.506V107.92C271.825 108.558 271.439 108.882 270.809 108.882C270.216 108.882 269.955 108.63 269.784 108.315L268.633 108.981C269.047 109.718 269.829 110.068 270.764 110.068C271.96 110.068 273.138 109.43 273.138 107.92V103.649H271.825ZM270.737 106.85C270.099 106.85 269.649 106.427 269.649 105.807C269.649 105.186 270.099 104.764 270.737 104.764C271.376 104.764 271.825 105.186 271.825 105.807C271.825 106.427 271.376 106.85 270.737 106.85ZM274.771 103.253C275.211 103.253 275.58 102.884 275.58 102.444C275.58 102.003 275.211 101.634 274.771 101.634C274.33 101.634 273.961 102.003 273.961 102.444C273.961 102.884 274.33 103.253 274.771 103.253ZM274.096 108.144H275.445V103.649H274.096V108.144ZM277.634 104.961C277.634 104.799 277.777 104.71 278.011 104.71C278.308 104.71 278.488 104.871 278.614 105.105L279.765 104.485C279.387 103.846 278.739 103.523 278.011 103.523C277.076 103.523 276.249 104.017 276.249 104.997C276.249 106.553 278.461 106.292 278.461 106.787C278.461 106.966 278.299 107.065 277.975 107.065C277.58 107.065 277.328 106.877 277.211 106.535L276.042 107.2C276.393 107.929 277.076 108.27 277.975 108.27C278.946 108.27 279.845 107.83 279.845 106.796C279.845 105.132 277.634 105.474 277.634 104.961ZM282.99 104.943V103.649H282.064V102.39L280.715 102.794V103.649H279.996V104.943H280.715V106.535C280.715 107.794 281.228 108.324 282.99 108.144V106.921C282.397 106.957 282.064 106.921 282.064 106.535V104.943H282.99ZM284.84 106.436H288.032C288.068 106.265 288.086 106.085 288.086 105.896C288.086 104.539 287.115 103.523 285.802 103.523C284.381 103.523 283.41 104.557 283.41 105.896C283.41 107.236 284.363 108.27 285.901 108.27C286.755 108.27 287.42 107.955 287.861 107.344L286.782 106.724C286.602 106.921 286.287 107.065 285.919 107.065C285.424 107.065 285.011 106.903 284.84 106.436ZM284.813 105.429C284.939 104.97 285.28 104.719 285.793 104.719C286.197 104.719 286.602 104.907 286.746 105.429H284.813ZM290.168 104.449V103.649H288.819V108.144H290.168V106.112C290.168 105.222 290.959 104.997 291.517 105.087V103.559C290.95 103.559 290.348 103.846 290.168 104.449Z" fill="#1A2B49"/>
<path d="M137.562 67.29C137.112 67.29 136.717 67.1971 136.375 67.0112C136.033 66.8254 135.791 66.5587 135.647 66.211L136.177 65.8963C136.375 66.4178 136.837 66.6785 137.562 66.6785C138.012 66.6785 138.362 66.5706 138.614 66.3548C138.872 66.1391 139.001 65.8214 139.001 65.4017V60.888H139.63V65.4017C139.63 66.0132 139.432 66.4807 139.037 66.8044C138.647 67.1281 138.155 67.29 137.562 67.29ZM144.61 66.6156C144.148 67.0652 143.591 67.29 142.938 67.29C142.272 67.29 141.712 67.0652 141.256 66.6156C140.801 66.16 140.573 65.5996 140.573 64.9342C140.573 64.2688 140.801 63.7113 141.256 63.2618C141.712 62.8062 142.272 62.5784 142.938 62.5784C143.597 62.5784 144.154 62.8062 144.61 63.2618C145.072 63.7113 145.302 64.2688 145.302 64.9342C145.302 65.5936 145.072 66.154 144.61 66.6156ZM141.679 66.202C142.02 66.5437 142.44 66.7145 142.938 66.7145C143.435 66.7145 143.855 66.5437 144.196 66.202C144.538 65.8483 144.709 65.4257 144.709 64.9342C144.709 64.4367 144.538 64.0171 144.196 63.6754C143.855 63.3277 143.435 63.1539 142.938 63.1539C142.44 63.1539 142.02 63.3277 141.679 63.6754C141.337 64.0171 141.166 64.4367 141.166 64.9342C141.166 65.4257 141.337 65.8483 141.679 66.202ZM147.024 61.3016C147.024 61.4215 146.982 61.5234 146.898 61.6073C146.814 61.6913 146.712 61.7332 146.592 61.7332C146.472 61.7332 146.37 61.6913 146.286 61.6073C146.202 61.5234 146.161 61.4215 146.161 61.3016C146.161 61.1817 146.202 61.0798 146.286 60.9959C146.37 60.912 146.472 60.87 146.592 60.87C146.712 60.87 146.814 60.912 146.898 60.9959C146.982 61.0798 147.024 61.1817 147.024 61.3016ZM146.889 67.1821H146.295V62.6863H146.889V67.1821ZM150.252 62.5784C150.792 62.5784 151.22 62.7463 151.538 63.0819C151.856 63.4116 152.014 63.8582 152.014 64.4217V67.1821H151.421V64.4217C151.421 64.0201 151.313 63.7084 151.097 63.4866C150.888 63.2648 150.588 63.1539 150.198 63.1539C149.749 63.1539 149.392 63.2947 149.128 63.5765C148.87 63.8582 148.742 64.2748 148.742 64.8263V67.1821H148.148V62.6863H148.742V63.3877C149.077 62.8482 149.581 62.5784 150.252 62.5784ZM158.575 65.0421V62.6863H159.168V67.1821H158.575V66.4807C158.239 67.0202 157.736 67.29 157.064 67.29C156.525 67.29 156.096 67.1251 155.778 66.7954C155.461 66.4598 155.302 66.0102 155.302 65.4467V62.6863H155.895V65.4467C155.895 65.8483 156 66.16 156.21 66.3818C156.426 66.6036 156.729 66.7145 157.118 66.7145C157.568 66.7145 157.921 66.5736 158.179 66.2919C158.443 66.0102 158.575 65.5936 158.575 65.0421ZM160.891 63.8642C160.891 64.2119 161.2 64.4666 161.817 64.6285C161.991 64.6704 162.105 64.7004 162.159 64.7184C162.213 64.7304 162.318 64.7634 162.474 64.8173C162.636 64.8653 162.746 64.9072 162.806 64.9432C162.872 64.9791 162.962 65.0361 163.076 65.114C163.19 65.186 163.271 65.2609 163.319 65.3388C163.367 65.4107 163.412 65.5067 163.454 65.6265C163.496 65.7404 163.517 65.8633 163.517 65.9952C163.517 66.3788 163.364 66.6905 163.058 66.9303C162.764 67.1701 162.375 67.29 161.889 67.29C161.47 67.29 161.107 67.1971 160.801 67.0112C160.496 66.8194 160.28 66.5676 160.154 66.2559L160.657 65.9592C160.741 66.193 160.891 66.3788 161.107 66.5167C161.329 66.6486 161.59 66.7145 161.889 66.7145C162.195 66.7145 162.444 66.6546 162.636 66.5347C162.827 66.4148 162.923 66.235 162.923 65.9952C162.923 65.6475 162.615 65.3928 161.997 65.2309C161.823 65.189 161.709 65.162 161.655 65.15C161.602 65.132 161.494 65.099 161.332 65.0511C161.176 64.9971 161.065 64.9522 160.999 64.9162C160.939 64.8802 160.852 64.8263 160.738 64.7544C160.624 64.6764 160.544 64.6015 160.496 64.5296C160.448 64.4516 160.403 64.3557 160.361 64.2418C160.319 64.122 160.298 63.9961 160.298 63.8642C160.298 63.4985 160.442 63.1928 160.729 62.9471C161.029 62.7013 161.398 62.5784 161.835 62.5784C162.195 62.5784 162.513 62.6593 162.788 62.8212C163.07 62.983 163.277 63.2078 163.409 63.4956L162.914 63.7833C162.746 63.3637 162.387 63.1539 161.835 63.1539C161.566 63.1539 161.341 63.2168 161.161 63.3427C160.981 63.4686 160.891 63.6424 160.891 63.8642ZM165.136 65.4737H164.687L164.552 62.6863V60.888H165.271V62.6863L165.136 65.4737ZM165.406 66.7774C165.406 66.9153 165.358 67.0322 165.262 67.1281C165.166 67.224 165.049 67.272 164.911 67.272C164.773 67.272 164.657 67.224 164.561 67.1281C164.465 67.0322 164.417 66.9153 164.417 66.7774C164.417 66.6396 164.465 66.5227 164.561 66.4268C164.657 66.3309 164.773 66.2829 164.911 66.2829C165.049 66.2829 165.166 66.3309 165.262 66.4268C165.358 66.5227 165.406 66.6396 165.406 66.7774ZM168.377 60.888H172.873V61.4815H170.94V67.1821H170.31V61.4815H168.377V60.888ZM174.411 61.3016C174.411 61.4215 174.369 61.5234 174.285 61.6073C174.201 61.6913 174.099 61.7332 173.979 61.7332C173.859 61.7332 173.758 61.6913 173.674 61.6073C173.59 61.5234 173.548 61.4215 173.548 61.3016C173.548 61.1817 173.59 61.0798 173.674 60.9959C173.758 60.912 173.859 60.87 173.979 60.87C174.099 60.87 174.201 60.912 174.285 60.9959C174.369 61.0798 174.411 61.1817 174.411 61.3016ZM174.276 67.1821H173.683V62.6863H174.276V67.1821ZM180.328 62.5784C180.837 62.5784 181.245 62.7403 181.551 63.064C181.856 63.3877 182.009 63.8252 182.009 64.3767V67.1821H181.416V64.3767C181.416 63.9931 181.317 63.6934 181.119 63.4776C180.921 63.2618 180.654 63.1539 180.319 63.1539C179.929 63.1539 179.623 63.2828 179.402 63.5405C179.18 63.7983 179.069 64.1819 179.069 64.6914V67.1821H178.476V64.3767C178.476 63.9871 178.383 63.6874 178.197 63.4776C178.011 63.2618 177.753 63.1539 177.424 63.1539C177.046 63.1539 176.734 63.2857 176.488 63.5495C176.249 63.8133 176.129 64.1939 176.129 64.6914V67.1821H175.535V62.6863H176.129V63.3427C176.452 62.8332 176.911 62.5784 177.504 62.5784C178.158 62.5784 178.613 62.8512 178.871 63.3966C179.195 62.8512 179.68 62.5784 180.328 62.5784ZM185.567 62.5784C186.208 62.5784 186.754 62.8062 187.203 63.2618C187.659 63.7173 187.887 64.2748 187.887 64.9342C187.887 65.5936 187.659 66.151 187.203 66.6066C186.754 67.0622 186.208 67.29 185.567 67.29C184.77 67.29 184.164 66.9603 183.75 66.3009V67.1821H183.157V60.888H183.75V63.5675C184.164 62.9081 184.77 62.5784 185.567 62.5784ZM184.263 66.202C184.605 66.5437 185.024 66.7145 185.522 66.7145C186.019 66.7145 186.439 66.5437 186.781 66.202C187.122 65.8483 187.293 65.4257 187.293 64.9342C187.293 64.4367 187.122 64.0171 186.781 63.6754C186.439 63.3277 186.019 63.1539 185.522 63.1539C185.024 63.1539 184.605 63.3277 184.263 63.6754C183.921 64.0171 183.75 64.4367 183.75 64.9342C183.75 65.4257 183.921 65.8483 184.263 66.202ZM192.038 65.0421V62.6863H192.632V67.1821H192.038V66.4807C191.703 67.0202 191.199 67.29 190.528 67.29C189.988 67.29 189.56 67.1251 189.242 66.7954C188.924 66.4598 188.765 66.0102 188.765 65.4467V62.6863H189.359V65.4467C189.359 65.8483 189.464 66.16 189.674 66.3818C189.889 66.6036 190.192 66.7145 190.582 66.7145C191.031 66.7145 191.385 66.5736 191.643 66.2919C191.906 66.0102 192.038 65.5936 192.038 65.0421ZM194.786 66.7774C194.786 66.9153 194.738 67.0322 194.642 67.1281C194.546 67.224 194.43 67.272 194.292 67.272C194.154 67.272 194.037 67.224 193.941 67.1281C193.845 67.0322 193.797 66.9153 193.797 66.7774C193.797 66.6396 193.845 66.5227 193.941 66.4268C194.037 66.3309 194.154 66.2829 194.292 66.2829C194.43 66.2829 194.546 66.3309 194.642 66.4268C194.738 66.5227 194.786 66.6396 194.786 66.7774ZM197.694 67.29C197.017 67.29 196.454 67.0652 196.004 66.6156C195.554 66.154 195.33 65.5936 195.33 64.9342C195.33 64.2688 195.554 63.7113 196.004 63.2618C196.454 62.8062 197.017 62.5784 197.694 62.5784C198.138 62.5784 198.537 62.6863 198.89 62.9021C199.244 63.1119 199.502 63.3966 199.664 63.7563L199.178 64.035C199.058 63.7653 198.863 63.5525 198.594 63.3966C198.33 63.2348 198.03 63.1539 197.694 63.1539C197.197 63.1539 196.777 63.3277 196.436 63.6754C196.094 64.0171 195.923 64.4367 195.923 64.9342C195.923 65.4257 196.094 65.8483 196.436 66.202C196.777 66.5437 197.197 66.7145 197.694 66.7145C198.024 66.7145 198.321 66.6366 198.585 66.4807C198.854 66.3249 199.064 66.1091 199.214 65.8333L199.708 66.1211C199.523 66.4807 199.25 66.7655 198.89 66.9753C198.531 67.1851 198.132 67.29 197.694 67.29ZM204.284 66.6156C203.822 67.0652 203.265 67.29 202.612 67.29C201.946 67.29 201.386 67.0652 200.93 66.6156C200.475 66.16 200.247 65.5996 200.247 64.9342C200.247 64.2688 200.475 63.7113 200.93 63.2618C201.386 62.8062 201.946 62.5784 202.612 62.5784C203.271 62.5784 203.828 62.8062 204.284 63.2618C204.746 63.7113 204.976 64.2688 204.976 64.9342C204.976 65.5936 204.746 66.154 204.284 66.6156ZM201.353 66.202C201.694 66.5437 202.114 66.7145 202.612 66.7145C203.109 66.7145 203.529 66.5437 203.87 66.202C204.212 65.8483 204.383 65.4257 204.383 64.9342C204.383 64.4367 204.212 64.0171 203.87 63.6754C203.529 63.3277 203.109 63.1539 202.612 63.1539C202.114 63.1539 201.694 63.3277 201.353 63.6754C201.011 64.0171 200.84 64.4367 200.84 64.9342C200.84 65.4257 201.011 65.8483 201.353 66.202ZM210.762 62.5784C211.271 62.5784 211.679 62.7403 211.985 63.064C212.29 63.3877 212.443 63.8252 212.443 64.3767V67.1821H211.85V64.3767C211.85 63.9931 211.751 63.6934 211.553 63.4776C211.355 63.2618 211.089 63.1539 210.753 63.1539C210.363 63.1539 210.058 63.2828 209.836 63.5405C209.614 63.7983 209.503 64.1819 209.503 64.6914V67.1821H208.91V64.3767C208.91 63.9871 208.817 63.6874 208.631 63.4776C208.445 63.2618 208.187 63.1539 207.858 63.1539C207.48 63.1539 207.168 63.2857 206.923 63.5495C206.683 63.8133 206.563 64.1939 206.563 64.6914V67.1821H205.969V62.6863H206.563V63.3427C206.887 62.8332 207.345 62.5784 207.939 62.5784C208.592 62.5784 209.048 62.8512 209.305 63.3966C209.629 62.8512 210.115 62.5784 210.762 62.5784ZM220.631 62.5784C221.141 62.5784 221.549 62.7403 221.854 63.064C222.16 63.3877 222.313 63.8252 222.313 64.3767V67.1821H221.719V64.3767C221.719 63.9931 221.621 63.6934 221.423 63.4776C221.225 63.2618 220.958 63.1539 220.623 63.1539C220.233 63.1539 219.927 63.2828 219.705 63.5405C219.484 63.7983 219.373 64.1819 219.373 64.6914V67.1821H218.779V64.3767C218.779 63.9871 218.686 63.6874 218.501 63.4776C218.315 63.2618 218.057 63.1539 217.727 63.1539C217.35 63.1539 217.038 63.2857 216.792 63.5495C216.552 63.8133 216.432 64.1939 216.432 64.6914V67.1821H215.839V62.6863H216.432V63.3427C216.756 62.8332 217.215 62.5784 217.808 62.5784C218.462 62.5784 218.917 62.8512 219.175 63.3966C219.499 62.8512 219.984 62.5784 220.631 62.5784ZM225.538 62.5784C226.209 62.5784 226.746 62.8152 227.147 63.2887C227.561 63.7563 227.768 64.3108 227.768 64.9522C227.768 64.9821 227.762 65.0751 227.75 65.2309H223.802C223.862 65.6805 224.054 66.0401 224.378 66.3099C224.702 66.5796 225.106 66.7145 225.592 66.7145C226.275 66.7145 226.758 66.4598 227.039 65.9502L227.561 66.2559C227.363 66.5796 227.09 66.8344 226.743 67.0202C226.401 67.2001 226.014 67.29 225.583 67.29C224.875 67.29 224.3 67.0682 223.856 66.6246C223.413 66.181 223.191 65.6175 223.191 64.9342C223.191 64.2568 223.41 63.6964 223.847 63.2528C224.285 62.8032 224.848 62.5784 225.538 62.5784ZM225.538 63.1539C225.07 63.1539 224.678 63.2917 224.36 63.5675C224.048 63.8432 223.862 64.2059 223.802 64.6555H227.156C227.09 64.1759 226.907 63.8073 226.608 63.5495C226.296 63.2857 225.939 63.1539 225.538 63.1539ZM233.504 62.5784C234.014 62.5784 234.421 62.7403 234.727 63.064C235.033 63.3877 235.186 63.8252 235.186 64.3767V67.1821H234.592V64.3767C234.592 63.9931 234.493 63.6934 234.295 63.4776C234.098 63.2618 233.831 63.1539 233.495 63.1539C233.105 63.1539 232.8 63.2828 232.578 63.5405C232.356 63.7983 232.245 64.1819 232.245 64.6914V67.1821H231.652V64.3767C231.652 63.9871 231.559 63.6874 231.373 63.4776C231.187 63.2618 230.93 63.1539 230.6 63.1539C230.222 63.1539 229.91 63.2857 229.665 63.5495C229.425 63.8133 229.305 64.1939 229.305 64.6914V67.1821H228.712V62.6863H229.305V63.3427C229.629 62.8332 230.087 62.5784 230.681 62.5784C231.334 62.5784 231.79 62.8512 232.047 63.3966C232.371 62.8512 232.857 62.5784 233.504 62.5784ZM238.743 62.5784C239.384 62.5784 239.93 62.8062 240.38 63.2618C240.835 63.7173 241.063 64.2748 241.063 64.9342C241.063 65.5936 240.835 66.151 240.38 66.6066C239.93 67.0622 239.384 67.29 238.743 67.29C237.946 67.29 237.34 66.9603 236.927 66.3009V67.1821H236.333V60.888H236.927V63.5675C237.34 62.9081 237.946 62.5784 238.743 62.5784ZM237.439 66.202C237.781 66.5437 238.201 66.7145 238.698 66.7145C239.196 66.7145 239.615 66.5437 239.957 66.202C240.299 65.8483 240.469 65.4257 240.469 64.9342C240.469 64.4367 240.299 64.0171 239.957 63.6754C239.615 63.3277 239.196 63.1539 238.698 63.1539C238.201 63.1539 237.781 63.3277 237.439 63.6754C237.098 64.0171 236.927 64.4367 236.927 64.9342C236.927 65.4257 237.098 65.8483 237.439 66.202ZM244.127 62.5784C244.798 62.5784 245.335 62.8152 245.736 63.2887C246.15 63.7563 246.357 64.3108 246.357 64.9522C246.357 64.9821 246.351 65.0751 246.339 65.2309H242.391C242.451 65.6805 242.643 66.0401 242.967 66.3099C243.29 66.5796 243.695 66.7145 244.181 66.7145C244.864 66.7145 245.346 66.4598 245.628 65.9502L246.15 66.2559C245.952 66.5796 245.679 66.8344 245.332 67.0202C244.99 67.2001 244.603 67.29 244.172 67.29C243.464 67.29 242.889 67.0682 242.445 66.6246C242.002 66.181 241.78 65.6175 241.78 64.9342C241.78 64.2568 241.999 63.6964 242.436 63.2528C242.874 62.8032 243.437 62.5784 244.127 62.5784ZM244.127 63.1539C243.659 63.1539 243.266 63.2917 242.949 63.5675C242.637 63.8432 242.451 64.2059 242.391 64.6555H245.745C245.679 64.1759 245.496 63.8073 245.197 63.5495C244.885 63.2857 244.528 63.1539 244.127 63.1539ZM247.894 62.6863V63.4326C248.17 62.8871 248.643 62.6144 249.315 62.6144V63.1898C248.883 63.1898 248.538 63.3157 248.281 63.5675C248.023 63.8133 247.894 64.1849 247.894 64.6824V67.1821H247.301V62.6863H247.894ZM250.42 63.8642C250.42 64.2119 250.729 64.4666 251.346 64.6285C251.52 64.6704 251.634 64.7004 251.688 64.7184C251.742 64.7304 251.847 64.7634 252.002 64.8173C252.164 64.8653 252.275 64.9072 252.335 64.9432C252.401 64.9791 252.491 65.0361 252.605 65.114C252.719 65.186 252.8 65.2609 252.848 65.3388C252.896 65.4107 252.94 65.5067 252.982 65.6265C253.024 65.7404 253.045 65.8633 253.045 65.9952C253.045 66.3788 252.893 66.6905 252.587 66.9303C252.293 67.1701 251.903 67.29 251.418 67.29C250.998 67.29 250.636 67.1971 250.33 67.0112C250.024 66.8194 249.808 66.5676 249.683 66.2559L250.186 65.9592C250.27 66.193 250.42 66.3788 250.636 66.5167C250.857 66.6486 251.118 66.7145 251.418 66.7145C251.724 66.7145 251.972 66.6546 252.164 66.5347C252.356 66.4148 252.452 66.235 252.452 65.9952C252.452 65.6475 252.143 65.3928 251.526 65.2309C251.352 65.189 251.238 65.162 251.184 65.15C251.13 65.132 251.022 65.099 250.86 65.0511C250.705 64.9971 250.594 64.9522 250.528 64.9162C250.468 64.8802 250.381 64.8263 250.267 64.7544C250.153 64.6764 250.072 64.6015 250.024 64.5296C249.976 64.4516 249.931 64.3557 249.889 64.2418C249.847 64.122 249.826 63.9961 249.826 63.8642C249.826 63.4985 249.97 63.1928 250.258 62.9471C250.558 62.7013 250.926 62.5784 251.364 62.5784C251.724 62.5784 252.041 62.6593 252.317 62.8212C252.599 62.983 252.806 63.2078 252.937 63.4956L252.443 63.7833C252.275 63.3637 251.915 63.1539 251.364 63.1539C251.094 63.1539 250.869 63.2168 250.69 63.3427C250.51 63.4686 250.42 63.6424 250.42 63.8642ZM258.378 67.29C257.701 67.29 257.137 67.0652 256.688 66.6156C256.238 66.154 256.013 65.5936 256.013 64.9342C256.013 64.2688 256.238 63.7113 256.688 63.2618C257.137 62.8062 257.701 62.5784 258.378 62.5784C258.822 62.5784 259.22 62.6863 259.574 62.9021C259.928 63.1119 260.186 63.3966 260.347 63.7563L259.862 64.035C259.742 63.7653 259.547 63.5525 259.277 63.3966C259.014 63.2348 258.714 63.1539 258.378 63.1539C257.881 63.1539 257.461 63.3277 257.119 63.6754C256.778 64.0171 256.607 64.4367 256.607 64.9342C256.607 65.4257 256.778 65.8483 257.119 66.202C257.461 66.5437 257.881 66.7145 258.378 66.7145C258.708 66.7145 259.005 66.6366 259.268 66.4807C259.538 66.3249 259.748 66.1091 259.898 65.8333L260.392 66.1211C260.207 66.4807 259.934 66.7655 259.574 66.9753C259.214 67.1851 258.816 67.29 258.378 67.29ZM265.067 63.5675V62.6863H265.66V67.1821H265.067V66.3009C264.653 66.9603 264.048 67.29 263.251 67.29C262.609 67.29 262.061 67.0622 261.605 66.6066C261.155 66.151 260.931 65.5936 260.931 64.9342C260.931 64.2748 261.155 63.7173 261.605 63.2618C262.061 62.8062 262.609 62.5784 263.251 62.5784C264.048 62.5784 264.653 62.9081 265.067 63.5675ZM262.037 66.202C262.378 66.5437 262.798 66.7145 263.295 66.7145C263.793 66.7145 264.213 66.5437 264.554 66.202C264.896 65.8483 265.067 65.4257 265.067 64.9342C265.067 64.4367 264.896 64.0171 264.554 63.6754C264.213 63.3277 263.793 63.1539 263.295 63.1539C262.798 63.1539 262.378 63.3277 262.037 63.6754C261.695 64.0171 261.524 64.4367 261.524 64.9342C261.524 65.4257 261.695 65.8483 262.037 66.202ZM269.021 62.5784C269.56 62.5784 269.989 62.7463 270.307 63.0819C270.624 63.4116 270.783 63.8582 270.783 64.4217V67.1821H270.19V64.4217C270.19 64.0201 270.082 63.7084 269.866 63.4866C269.656 63.2648 269.356 63.1539 268.967 63.1539C268.517 63.1539 268.161 63.2947 267.897 63.5765C267.639 63.8582 267.51 64.2748 267.51 64.8263V67.1821H266.917V62.6863H267.51V63.3877C267.846 62.8482 268.349 62.5784 269.021 62.5784ZM278.045 63.5675V62.6863H278.638V67.1821H278.045V66.3009C277.631 66.9603 277.026 67.29 276.228 67.29C275.587 67.29 275.039 67.0622 274.583 66.6066C274.133 66.151 273.909 65.5936 273.909 64.9342C273.909 64.2748 274.133 63.7173 274.583 63.2618C275.039 62.8062 275.587 62.5784 276.228 62.5784C277.026 62.5784 277.631 62.9081 278.045 63.5675ZM275.015 66.202C275.356 66.5437 275.776 66.7145 276.273 66.7145C276.771 66.7145 277.191 66.5437 277.532 66.202C277.874 65.8483 278.045 65.4257 278.045 64.9342C278.045 64.4367 277.874 64.0171 277.532 63.6754C277.191 63.3277 276.771 63.1539 276.273 63.1539C275.776 63.1539 275.356 63.3277 275.015 63.6754C274.673 64.0171 274.502 64.4367 274.502 64.9342C274.502 65.4257 274.673 65.8483 275.015 66.202ZM281.99 67.29C281.312 67.29 280.749 67.0652 280.299 66.6156C279.85 66.154 279.625 65.5936 279.625 64.9342C279.625 64.2688 279.85 63.7113 280.299 63.2618C280.749 62.8062 281.312 62.5784 281.99 62.5784C282.433 62.5784 282.832 62.6863 283.186 62.9021C283.539 63.1119 283.797 63.3966 283.959 63.7563L283.473 64.035C283.353 63.7653 283.159 63.5525 282.889 63.3966C282.625 63.2348 282.325 63.1539 281.99 63.1539C281.492 63.1539 281.073 63.3277 280.731 63.6754C280.389 64.0171 280.218 64.4367 280.218 64.9342C280.218 65.4257 280.389 65.8483 280.731 66.202C281.073 66.5437 281.492 66.7145 281.99 66.7145C282.319 66.7145 282.616 66.6366 282.88 66.4807C283.15 66.3249 283.359 66.1091 283.509 65.8333L284.004 66.1211C283.818 66.4807 283.545 66.7655 283.186 66.9753C282.826 67.1851 282.427 67.29 281.99 67.29ZM286.907 67.29C286.23 67.29 285.666 67.0652 285.217 66.6156C284.767 66.154 284.542 65.5936 284.542 64.9342C284.542 64.2688 284.767 63.7113 285.217 63.2618C285.666 62.8062 286.23 62.5784 286.907 62.5784C287.351 62.5784 287.749 62.6863 288.103 62.9021C288.456 63.1119 288.714 63.3966 288.876 63.7563L288.391 64.035C288.271 63.7653 288.076 63.5525 287.806 63.3966C287.542 63.2348 287.243 63.1539 286.907 63.1539C286.409 63.1539 285.99 63.3277 285.648 63.6754C285.306 64.0171 285.136 64.4367 285.136 64.9342C285.136 65.4257 285.306 65.8483 285.648 66.202C285.99 66.5437 286.409 66.7145 286.907 66.7145C287.237 66.7145 287.533 66.6366 287.797 66.4807C288.067 66.3249 288.277 66.1091 288.427 65.8333L288.921 66.1211C288.735 66.4807 288.462 66.7655 288.103 66.9753C287.743 67.1851 287.345 67.29 286.907 67.29ZM291.806 62.5784C292.478 62.5784 293.014 62.8152 293.416 63.2887C293.829 63.7563 294.036 64.3108 294.036 64.9522C294.036 64.9821 294.03 65.0751 294.018 65.2309H290.071C290.131 65.6805 290.323 66.0401 290.646 66.3099C290.97 66.5796 291.375 66.7145 291.86 66.7145C292.543 66.7145 293.026 66.4598 293.308 65.9502L293.829 66.2559C293.631 66.5796 293.359 66.8344 293.011 67.0202C292.669 67.2001 292.283 67.29 291.851 67.29C291.144 67.29 290.568 67.0682 290.125 66.6246C289.681 66.181 289.459 65.6175 289.459 64.9342C289.459 64.2568 289.678 63.6964 290.116 63.2528C290.553 62.8032 291.117 62.5784 291.806 62.5784ZM291.806 63.1539C291.339 63.1539 290.946 63.2917 290.628 63.5675C290.317 63.8432 290.131 64.2059 290.071 64.6555H293.425C293.359 64.1759 293.176 63.8073 292.876 63.5495C292.564 63.2857 292.208 63.1539 291.806 63.1539ZM295.272 63.8642C295.272 64.2119 295.581 64.4666 296.198 64.6285C296.372 64.6704 296.486 64.7004 296.54 64.7184C296.594 64.7304 296.699 64.7634 296.855 64.8173C297.016 64.8653 297.127 64.9072 297.187 64.9432C297.253 64.9791 297.343 65.0361 297.457 65.114C297.571 65.186 297.652 65.2609 297.7 65.3388C297.748 65.4107 297.793 65.5067 297.835 65.6265C297.877 65.7404 297.898 65.8633 297.898 65.9952C297.898 66.3788 297.745 66.6905 297.439 66.9303C297.145 67.1701 296.756 67.29 296.27 67.29C295.85 67.29 295.488 67.1971 295.182 67.0112C294.876 66.8194 294.661 66.5676 294.535 66.2559L295.038 65.9592C295.122 66.193 295.272 66.3788 295.488 66.5167C295.71 66.6486 295.97 66.7145 296.27 66.7145C296.576 66.7145 296.825 66.6546 297.016 66.5347C297.208 66.4148 297.304 66.235 297.304 65.9952C297.304 65.6475 296.995 65.3928 296.378 65.2309C296.204 65.189 296.09 65.162 296.036 65.15C295.982 65.132 295.874 65.099 295.713 65.0511C295.557 64.9971 295.446 64.9522 295.38 64.9162C295.32 64.8802 295.233 64.8263 295.119 64.7544C295.005 64.6764 294.924 64.6015 294.876 64.5296C294.828 64.4516 294.783 64.3557 294.742 64.2418C294.7 64.122 294.679 63.9961 294.679 63.8642C294.679 63.4985 294.822 63.1928 295.11 62.9471C295.41 62.7013 295.779 62.5784 296.216 62.5784C296.576 62.5784 296.893 62.6593 297.169 62.8212C297.451 62.983 297.658 63.2078 297.79 63.4956L297.295 63.7833C297.127 63.3637 296.768 63.1539 296.216 63.1539C295.946 63.1539 295.722 63.2168 295.542 63.3427C295.362 63.4686 295.272 63.6424 295.272 63.8642ZM299.083 63.8642C299.083 64.2119 299.392 64.4666 300.009 64.6285C300.183 64.6704 300.297 64.7004 300.351 64.7184C300.405 64.7304 300.509 64.7634 300.665 64.8173C300.827 64.8653 300.938 64.9072 300.998 64.9432C301.064 64.9791 301.154 65.0361 301.268 65.114C301.382 65.186 301.463 65.2609 301.511 65.3388C301.558 65.4107 301.603 65.5067 301.645 65.6265C301.687 65.7404 301.708 65.8633 301.708 65.9952C301.708 66.3788 301.556 66.6905 301.25 66.9303C300.956 67.1701 300.566 67.29 300.081 67.29C299.661 67.29 299.299 67.1971 298.993 67.0112C298.687 66.8194 298.471 66.5676 298.346 66.2559L298.849 65.9592C298.933 66.193 299.083 66.3788 299.299 66.5167C299.52 66.6486 299.781 66.7145 300.081 66.7145C300.387 66.7145 300.635 66.6546 300.827 66.5347C301.019 66.4148 301.115 66.235 301.115 65.9952C301.115 65.6475 300.806 65.3928 300.189 65.2309C300.015 65.189 299.901 65.162 299.847 65.15C299.793 65.132 299.685 65.099 299.523 65.0511C299.368 64.9971 299.257 64.9522 299.191 64.9162C299.131 64.8802 299.044 64.8263 298.93 64.7544C298.816 64.6764 298.735 64.6015 298.687 64.5296C298.639 64.4516 298.594 64.3557 298.552 64.2418C298.51 64.122 298.489 63.9961 298.489 63.8642C298.489 63.4985 298.633 63.1928 298.921 62.9471C299.221 62.7013 299.589 62.5784 300.027 62.5784C300.387 62.5784 300.704 62.6593 300.98 62.8212C301.262 62.983 301.469 63.2078 301.6 63.4956L301.106 63.7833C300.938 63.3637 300.578 63.1539 300.027 63.1539C299.757 63.1539 299.532 63.2168 299.353 63.3427C299.173 63.4686 299.083 63.6424 299.083 63.8642ZM305.414 63.8642C305.414 64.2119 305.722 64.4666 306.34 64.6285C306.514 64.6704 306.628 64.7004 306.682 64.7184C306.736 64.7304 306.84 64.7634 306.996 64.8173C307.158 64.8653 307.269 64.9072 307.329 64.9432C307.395 64.9791 307.485 65.0361 307.599 65.114C307.713 65.186 307.794 65.2609 307.841 65.3388C307.889 65.4107 307.934 65.5067 307.976 65.6265C308.018 65.7404 308.039 65.8633 308.039 65.9952C308.039 66.3788 307.886 66.6905 307.581 66.9303C307.287 67.1701 306.897 67.29 306.412 67.29C305.992 67.29 305.63 67.1971 305.324 67.0112C305.018 66.8194 304.802 66.5676 304.676 66.2559L305.18 65.9592C305.264 66.193 305.414 66.3788 305.63 66.5167C305.851 66.6486 306.112 66.7145 306.412 66.7145C306.718 66.7145 306.966 66.6546 307.158 66.5347C307.35 66.4148 307.446 66.235 307.446 65.9952C307.446 65.6475 307.137 65.3928 306.52 65.2309C306.346 65.189 306.232 65.162 306.178 65.15C306.124 65.132 306.016 65.099 305.854 65.0511C305.699 64.9971 305.588 64.9522 305.522 64.9162C305.462 64.8802 305.375 64.8263 305.261 64.7544C305.147 64.6764 305.066 64.6015 305.018 64.5296C304.97 64.4516 304.925 64.3557 304.883 64.2418C304.841 64.122 304.82 63.9961 304.82 63.8642C304.82 63.4985 304.964 63.1928 305.252 62.9471C305.552 62.7013 305.92 62.5784 306.358 62.5784C306.718 62.5784 307.035 62.6593 307.311 62.8212C307.593 62.983 307.8 63.2078 307.931 63.4956L307.437 63.7833C307.269 63.3637 306.909 63.1539 306.358 63.1539C306.088 63.1539 305.863 63.2168 305.684 63.3427C305.504 63.4686 305.414 63.6424 305.414 63.8642ZM312.764 63.5675V62.6863H313.357V67.1821H312.764V66.3009C312.35 66.9603 311.745 67.29 310.948 67.29C310.306 67.29 309.758 67.0622 309.302 66.6066C308.853 66.151 308.628 65.5936 308.628 64.9342C308.628 64.2748 308.853 63.7173 309.302 63.2618C309.758 62.8062 310.306 62.5784 310.948 62.5784C311.745 62.5784 312.35 62.9081 312.764 63.5675ZM309.734 66.202C310.075 66.5437 310.495 66.7145 310.993 66.7145C311.49 66.7145 311.91 66.5437 312.251 66.202C312.593 65.8483 312.764 65.4257 312.764 64.9342C312.764 64.4367 312.593 64.0171 312.251 63.6754C311.91 63.3277 311.49 63.1539 310.993 63.1539C310.495 63.1539 310.075 63.3277 309.734 63.6754C309.392 64.0171 309.221 64.4367 309.221 64.9342C309.221 65.4257 309.392 65.8483 309.734 66.202ZM316.277 66.5617L317.851 62.6863H318.48L316.637 67.1821H315.918L314.074 62.6863H314.704L316.277 66.5617ZM322.362 65.0421V62.6863H322.956V67.1821H322.362V66.4807C322.027 67.0202 321.523 67.29 320.852 67.29C320.312 67.29 319.884 67.1251 319.566 66.7954C319.248 66.4598 319.09 66.0102 319.09 65.4467V62.6863H319.683V65.4467C319.683 65.8483 319.788 66.16 319.998 66.3818C320.213 66.6036 320.516 66.7145 320.906 66.7145C321.355 66.7145 321.709 66.5736 321.967 66.2919C322.231 66.0102 322.362 65.5936 322.362 65.0421ZM326.315 62.5784C326.855 62.5784 327.283 62.7463 327.601 63.0819C327.919 63.4116 328.078 63.8582 328.078 64.4217V67.1821H327.484V64.4217C327.484 64.0201 327.376 63.7084 327.16 63.4866C326.951 63.2648 326.651 63.1539 326.261 63.1539C325.812 63.1539 325.455 63.2947 325.191 63.5765C324.934 63.8582 324.805 64.2748 324.805 64.8263V67.1821H324.211V62.6863H324.805V63.3877C325.14 62.8482 325.644 62.5784 326.315 62.5784ZM333.091 63.5675V62.6863H333.685V67.0022C333.685 67.6496 333.463 68.1591 333.019 68.5308C332.576 68.9024 332.045 69.0883 331.428 69.0883C330.379 69.0883 329.669 68.7226 329.297 67.9913L329.818 67.6946C330.088 68.2401 330.625 68.5128 331.428 68.5128C331.943 68.5128 332.348 68.3779 332.642 68.1082C332.942 67.8384 333.091 67.4698 333.091 67.0022V66.3009C332.678 66.9603 332.072 67.29 331.275 67.29C330.634 67.29 330.085 67.0622 329.63 66.6066C329.18 66.151 328.955 65.5936 328.955 64.9342C328.955 64.2748 329.18 63.7173 329.63 63.2618C330.085 62.8062 330.634 62.5784 331.275 62.5784C332.072 62.5784 332.678 62.9081 333.091 63.5675ZM330.061 66.202C330.403 66.5437 330.823 66.7145 331.32 66.7145C331.818 66.7145 332.237 66.5437 332.579 66.202C332.921 65.8483 333.091 65.4257 333.091 64.9342C333.091 64.4367 332.921 64.0171 332.579 63.6754C332.237 63.3277 331.818 63.1539 331.32 63.1539C330.823 63.1539 330.403 63.3277 330.061 63.6754C329.72 64.0171 329.549 64.4367 329.549 64.9342C329.549 65.4257 329.72 65.8483 330.061 66.202ZM335.409 63.8642C335.409 64.2119 335.718 64.4666 336.335 64.6285C336.509 64.6704 336.623 64.7004 336.677 64.7184C336.731 64.7304 336.836 64.7634 336.991 64.8173C337.153 64.8653 337.264 64.9072 337.324 64.9432C337.39 64.9791 337.48 65.0361 337.594 65.114C337.708 65.186 337.789 65.2609 337.837 65.3388C337.885 65.4107 337.929 65.5067 337.971 65.6265C338.013 65.7404 338.034 65.8633 338.034 65.9952C338.034 66.3788 337.882 66.6905 337.576 66.9303C337.282 67.1701 336.892 67.29 336.407 67.29C335.987 67.29 335.625 67.1971 335.319 67.0112C335.013 66.8194 334.797 66.5676 334.672 66.2559L335.175 65.9592C335.259 66.193 335.409 66.3788 335.625 66.5167C335.846 66.6486 336.107 66.7145 336.407 66.7145C336.713 66.7145 336.961 66.6546 337.153 66.5347C337.345 66.4148 337.441 66.235 337.441 65.9952C337.441 65.6475 337.132 65.3928 336.515 65.2309C336.341 65.189 336.227 65.162 336.173 65.15C336.119 65.132 336.011 65.099 335.849 65.0511C335.694 64.9971 335.583 64.9522 335.517 64.9162C335.457 64.8802 335.37 64.8263 335.256 64.7544C335.142 64.6764 335.061 64.6015 335.013 64.5296C334.965 64.4516 334.92 64.3557 334.878 64.2418C334.836 64.122 334.815 63.9961 334.815 63.8642C334.815 63.4985 334.959 63.1928 335.247 62.9471C335.547 62.7013 335.915 62.5784 336.353 62.5784C336.713 62.5784 337.03 62.6593 337.306 62.8212C337.588 62.983 337.795 63.2078 337.926 63.4956L337.432 63.7833C337.264 63.3637 336.904 63.1539 336.353 63.1539C336.083 63.1539 335.858 63.2168 335.679 63.3427C335.499 63.4686 335.409 63.6424 335.409 63.8642ZM345.04 66.6156C344.578 67.0652 344.021 67.29 343.367 67.29C342.702 67.29 342.141 67.0652 341.686 66.6156C341.23 66.16 341.003 65.5996 341.003 64.9342C341.003 64.2688 341.23 63.7113 341.686 63.2618C342.141 62.8062 342.702 62.5784 343.367 62.5784C344.027 62.5784 344.584 62.8062 345.04 63.2618C345.501 63.7113 345.732 64.2688 345.732 64.9342C345.732 65.5936 345.501 66.154 345.04 66.6156ZM342.108 66.202C342.45 66.5437 342.87 66.7145 343.367 66.7145C343.865 66.7145 344.284 66.5437 344.626 66.202C344.968 65.8483 345.139 65.4257 345.139 64.9342C345.139 64.4367 344.968 64.0171 344.626 63.6754C344.284 63.3277 343.865 63.1539 343.367 63.1539C342.87 63.1539 342.45 63.3277 342.108 63.6754C341.767 64.0171 341.596 64.4367 341.596 64.9342C341.596 65.4257 341.767 65.8483 342.108 66.202ZM348.797 60.7801V61.3556C348.36 61.3196 348.033 61.3945 347.817 61.5804C347.607 61.7662 347.503 62.0749 347.503 62.5065V62.6863H348.797V63.2618H347.503V67.1821H346.909V63.2618H346.145V62.6863H346.909V62.5065C346.909 61.913 347.071 61.4665 347.395 61.1668C347.724 60.867 348.192 60.7382 348.797 60.7801ZM354.842 65.0421V62.6863H355.436V67.1821H354.842V66.4807C354.507 67.0202 354.003 67.29 353.332 67.29C352.792 67.29 352.364 67.1251 352.046 66.7954C351.728 66.4598 351.57 66.0102 351.57 65.4467V62.6863H352.163V65.4467C352.163 65.8483 352.268 66.16 352.478 66.3818C352.693 66.6036 352.996 66.7145 353.386 66.7145C353.835 66.7145 354.189 66.5736 354.447 66.2919C354.711 66.0102 354.842 65.5936 354.842 65.0421ZM359.101 62.5784C359.742 62.5784 360.288 62.8062 360.737 63.2618C361.193 63.7173 361.421 64.2748 361.421 64.9342C361.421 65.5936 361.193 66.151 360.737 66.6066C360.288 67.0622 359.742 67.29 359.101 67.29C358.304 67.29 357.698 66.9603 357.285 66.3009V68.9804H356.691V62.6863H357.285V63.5675C357.698 62.9081 358.304 62.5784 359.101 62.5784ZM357.797 66.202C358.139 66.5437 358.559 66.7145 359.056 66.7145C359.554 66.7145 359.973 66.5437 360.315 66.202C360.657 65.8483 360.827 65.4257 360.827 64.9342C360.827 64.4367 360.657 64.0171 360.315 63.6754C359.973 63.3277 359.554 63.1539 359.056 63.1539C358.559 63.1539 358.139 63.3277 357.797 63.6754C357.456 64.0171 357.285 64.4367 357.285 64.9342C357.285 65.4257 357.456 65.8483 357.797 66.202ZM138.299 75.6863V76.2618H137.004V78.9862C137.004 79.232 137.052 79.4088 137.148 79.5167C137.244 79.6186 137.388 79.6725 137.58 79.6785C137.772 79.6785 138.012 79.6725 138.299 79.6606V80.1821C137.658 80.278 137.181 80.233 136.87 80.0472C136.564 79.8554 136.411 79.5017 136.411 78.9862V76.2618H135.467V75.6863H136.411V74.6073L137.004 74.4275V75.6863H138.299ZM142.784 79.6156C142.322 80.0652 141.765 80.29 141.111 80.29C140.446 80.29 139.885 80.0652 139.43 79.6156C138.974 79.16 138.746 78.5996 138.746 77.9342C138.746 77.2688 138.974 76.7113 139.43 76.2618C139.885 75.8062 140.446 75.5784 141.111 75.5784C141.771 75.5784 142.328 75.8062 142.784 76.2618C143.245 76.7113 143.476 77.2688 143.476 77.9342C143.476 78.5936 143.245 79.154 142.784 79.6156ZM139.852 79.202C140.194 79.5437 140.614 79.7145 141.111 79.7145C141.609 79.7145 142.028 79.5437 142.37 79.202C142.712 78.8483 142.882 78.4257 142.882 77.9342C142.882 77.4367 142.712 77.0171 142.37 76.6754C142.028 76.3277 141.609 76.1539 141.111 76.1539C140.614 76.1539 140.194 76.3277 139.852 76.6754C139.511 77.0171 139.34 77.4367 139.34 77.9342C139.34 78.4257 139.511 78.8483 139.852 79.202ZM147.409 76.4236H148.47C149.064 76.4236 149.561 76.5975 149.963 76.9451C150.376 77.2868 150.583 77.7574 150.583 78.3568C150.583 78.9502 150.376 79.4238 149.963 79.7774C149.561 80.1191 149.064 80.29 148.47 80.29C147.985 80.29 147.556 80.1731 147.184 79.9393C146.819 79.6995 146.573 79.3698 146.447 78.9502L146.978 78.6445C147.068 78.9742 147.244 79.229 147.508 79.4088C147.772 79.5886 148.093 79.6785 148.47 79.6785C148.914 79.6785 149.27 79.5617 149.54 79.3279C149.816 79.0881 149.954 78.7644 149.954 78.3568C149.954 77.9492 149.816 77.6285 149.54 77.3947C149.27 77.1549 148.914 77.035 148.47 77.035H146.762L146.987 73.888H150.358V74.4815H147.544L147.409 76.4236ZM155.353 79.4088C154.94 79.9962 154.355 80.29 153.6 80.29C152.851 80.29 152.263 79.9962 151.838 79.4088C151.424 78.8154 151.217 78.0241 151.217 77.035C151.217 76.04 151.424 75.2517 151.838 74.6703C152.263 74.0768 152.851 73.7801 153.6 73.7801C154.355 73.7801 154.94 74.0768 155.353 74.6703C155.773 75.2517 155.983 76.04 155.983 77.035C155.983 78.0301 155.773 78.8214 155.353 79.4088ZM152.305 78.9862C152.623 79.4478 153.054 79.6785 153.6 79.6785C154.151 79.6785 154.58 79.4478 154.886 78.9862C155.197 78.5306 155.353 77.8802 155.353 77.035C155.353 76.1898 155.197 75.5395 154.886 75.0839C154.58 74.6223 154.151 74.3915 153.6 74.3915C153.054 74.3915 152.623 74.6223 152.305 75.0839C151.999 75.5454 151.847 76.1958 151.847 77.035C151.847 77.8742 151.999 78.5246 152.305 78.9862ZM158.171 76.4776C157.775 76.4776 157.448 76.3487 157.191 76.0909C156.927 75.8272 156.795 75.5065 156.795 75.1288C156.795 74.7572 156.927 74.4395 157.191 74.1757C157.454 73.912 157.781 73.7801 158.171 73.7801C158.56 73.7801 158.887 73.912 159.151 74.1757C159.415 74.4395 159.546 74.7572 159.546 75.1288C159.546 75.5125 159.418 75.8332 159.16 76.0909C158.902 76.3487 158.572 76.4776 158.171 76.4776ZM157.371 75.1288C157.371 75.3566 157.445 75.5484 157.595 75.7043C157.745 75.8602 157.937 75.9381 158.171 75.9381C158.405 75.9381 158.596 75.8602 158.746 75.7043C158.896 75.5484 158.971 75.3566 158.971 75.1288C158.971 74.9011 158.896 74.7092 158.746 74.5534C158.596 74.3975 158.405 74.3196 158.171 74.3196C157.937 74.3196 157.745 74.3975 157.595 74.5534C157.445 74.7092 157.371 74.9011 157.371 75.1288ZM157.487 79.5437L157.11 79.3279L161.327 74.5894L161.713 74.8051L157.487 79.5437ZM161.695 79.9033C161.438 80.1611 161.111 80.29 160.715 80.29C160.32 80.29 159.993 80.1611 159.735 79.9033C159.472 79.6396 159.34 79.3189 159.34 78.9412C159.34 78.5696 159.472 78.2519 159.735 77.9881C159.999 77.7244 160.326 77.5925 160.715 77.5925C161.105 77.5925 161.432 77.7244 161.695 77.9881C161.959 78.2519 162.091 78.5696 162.091 78.9412C162.091 79.3189 161.959 79.6396 161.695 79.9033ZM159.915 78.9412C159.915 79.169 159.99 79.3608 160.14 79.5167C160.29 79.6725 160.482 79.7505 160.715 79.7505C160.949 79.7505 161.141 79.6725 161.291 79.5167C161.441 79.3608 161.516 79.169 161.516 78.9412C161.516 78.7135 161.441 78.5216 161.291 78.3658C161.141 78.2099 160.949 78.132 160.715 78.132C160.482 78.132 160.29 78.2099 160.14 78.3658C159.99 78.5216 159.915 78.7135 159.915 78.9412ZM169.374 76.5675V75.6863H169.967V80.1821H169.374V79.3009C168.96 79.9603 168.355 80.29 167.558 80.29C166.916 80.29 166.368 80.0622 165.912 79.6066C165.463 79.151 165.238 78.5936 165.238 77.9342C165.238 77.2748 165.463 76.7173 165.912 76.2618C166.368 75.8062 166.916 75.5784 167.558 75.5784C168.355 75.5784 168.96 75.9081 169.374 76.5675ZM166.344 79.202C166.686 79.5437 167.105 79.7145 167.603 79.7145C168.1 79.7145 168.52 79.5437 168.862 79.202C169.203 78.8483 169.374 78.4257 169.374 77.9342C169.374 77.4367 169.203 77.0171 168.862 76.6754C168.52 76.3277 168.1 76.1539 167.603 76.1539C167.105 76.1539 166.686 76.3277 166.344 76.6754C166.002 77.0171 165.831 77.4367 165.831 77.9342C165.831 78.4257 166.002 78.8483 166.344 79.202ZM173.328 75.5784C173.867 75.5784 174.296 75.7463 174.614 76.0819C174.931 76.4116 175.09 76.8582 175.09 77.4217V80.1821H174.497V77.4217C174.497 77.0201 174.389 76.7083 174.173 76.4866C173.963 76.2648 173.664 76.1539 173.274 76.1539C172.824 76.1539 172.468 76.2947 172.204 76.5765C171.946 76.8582 171.817 77.2748 171.817 77.8263V80.1821H171.224V75.6863H171.817V76.3877C172.153 75.8482 172.657 75.5784 173.328 75.5784ZM180.104 76.5675V73.888H180.698V80.1821H180.104V79.3009C179.691 79.9603 179.085 80.29 178.288 80.29C177.646 80.29 177.098 80.0622 176.642 79.6066C176.193 79.151 175.968 78.5936 175.968 77.9342C175.968 77.2748 176.193 76.7173 176.642 76.2618C177.098 75.8062 177.646 75.5784 178.288 75.5784C179.085 75.5784 179.691 75.9081 180.104 76.5675ZM177.074 79.202C177.416 79.5437 177.835 79.7145 178.333 79.7145C178.83 79.7145 179.25 79.5437 179.592 79.202C179.933 78.8483 180.104 78.4257 180.104 77.9342C180.104 77.4367 179.933 77.0171 179.592 76.6754C179.25 76.3277 178.83 76.1539 178.333 76.1539C177.835 76.1539 177.416 76.3277 177.074 76.6754C176.732 77.0171 176.561 77.4367 176.561 77.9342C176.561 78.4257 176.732 78.8483 177.074 79.202ZM186.279 75.5784C186.95 75.5784 187.487 75.8152 187.888 76.2887C188.302 76.7563 188.509 77.3108 188.509 77.9522C188.509 77.9821 188.503 78.0751 188.491 78.2309H184.544C184.604 78.6805 184.795 79.0401 185.119 79.3099C185.443 79.5796 185.847 79.7145 186.333 79.7145C187.016 79.7145 187.499 79.4597 187.781 78.9502L188.302 79.2559C188.104 79.5796 187.832 79.8344 187.484 80.0202C187.142 80.2 186.756 80.29 186.324 80.29C185.617 80.29 185.041 80.0682 184.598 79.6246C184.154 79.181 183.932 78.6175 183.932 77.9342C183.932 77.2568 184.151 76.6964 184.589 76.2528C185.026 75.8032 185.59 75.5784 186.279 75.5784ZM186.279 76.1539C185.811 76.1539 185.419 76.2917 185.101 76.5675C184.789 76.8432 184.604 77.2059 184.544 77.6555H187.897C187.832 77.1759 187.649 76.8073 187.349 76.5495C187.037 76.2857 186.681 76.1539 186.279 76.1539ZM193.319 76.5675V75.6863H193.913V80.1821H193.319V79.3009C192.906 79.9603 192.3 80.29 191.503 80.29C190.861 80.29 190.313 80.0622 189.857 79.6066C189.408 79.151 189.183 78.5936 189.183 77.9342C189.183 77.2748 189.408 76.7173 189.857 76.2618C190.313 75.8062 190.861 75.5784 191.503 75.5784C192.3 75.5784 192.906 75.9081 193.319 76.5675ZM190.289 79.202C190.631 79.5437 191.05 79.7145 191.548 79.7145C192.045 79.7145 192.465 79.5437 192.807 79.202C193.148 78.8483 193.319 78.4257 193.319 77.9342C193.319 77.4367 193.148 77.0171 192.807 76.6754C192.465 76.3277 192.045 76.1539 191.548 76.1539C191.05 76.1539 190.631 76.3277 190.289 76.6754C189.947 77.0171 189.777 77.4367 189.777 77.9342C189.777 78.4257 189.947 78.8483 190.289 79.202ZM195.763 75.6863V76.4326C196.038 75.8871 196.512 75.6144 197.183 75.6144V76.1898C196.752 76.1898 196.407 76.3157 196.149 76.5675C195.891 76.8133 195.763 77.1849 195.763 77.6824V80.1821H195.169V75.6863H195.763ZM200.101 75.5784C200.64 75.5784 201.069 75.7463 201.386 76.0819C201.704 76.4116 201.863 76.8582 201.863 77.4217V80.1821H201.269V77.4217C201.269 77.0201 201.162 76.7083 200.946 76.4866C200.736 76.2648 200.436 76.1539 200.047 76.1539C199.597 76.1539 199.24 76.2947 198.977 76.5765C198.719 76.8582 198.59 77.2748 198.59 77.8263V80.1821H197.997V75.6863H198.59V76.3877C198.926 75.8482 199.429 75.5784 200.101 75.5784ZM204.809 73.888H209.304V74.4815H207.371V80.1821H206.742V74.4815H204.809V73.888ZM210.842 74.3016C210.842 74.4215 210.8 74.5234 210.716 74.6073C210.632 74.6913 210.531 74.7332 210.411 74.7332C210.291 74.7332 210.189 74.6913 210.105 74.6073C210.021 74.5234 209.979 74.4215 209.979 74.3016C209.979 74.1817 210.021 74.0798 210.105 73.9959C210.189 73.912 210.291 73.87 210.411 73.87C210.531 73.87 210.632 73.912 210.716 73.9959C210.8 74.0798 210.842 74.1817 210.842 74.3016ZM210.707 80.1821H210.114V75.6863H210.707V80.1821ZM216.759 75.5784C217.269 75.5784 217.676 75.7403 217.982 76.064C218.288 76.3877 218.441 76.8252 218.441 77.3767V80.1821H217.847V77.3767C217.847 76.9931 217.748 76.6934 217.55 76.4776C217.353 76.2618 217.086 76.1539 216.75 76.1539C216.361 76.1539 216.055 76.2828 215.833 76.5405C215.611 76.7983 215.5 77.1819 215.5 77.6914V80.1821H214.907V77.3767C214.907 76.9871 214.814 76.6874 214.628 76.4776C214.442 76.2618 214.185 76.1539 213.855 76.1539C213.477 76.1539 213.166 76.2857 212.92 76.5495C212.68 76.8133 212.56 77.1939 212.56 77.6914V80.1821H211.967V75.6863H212.56V76.3427C212.884 75.8332 213.342 75.5784 213.936 75.5784C214.589 75.5784 215.045 75.8512 215.303 76.3966C215.626 75.8512 216.112 75.5784 216.759 75.5784ZM221.998 75.5784C222.64 75.5784 223.185 75.8062 223.635 76.2618C224.09 76.7173 224.318 77.2748 224.318 77.9342C224.318 78.5936 224.09 79.151 223.635 79.6066C223.185 80.0622 222.64 80.29 221.998 80.29C221.201 80.29 220.595 79.9603 220.182 79.3009V80.1821H219.588V73.888H220.182V76.5675C220.595 75.9081 221.201 75.5784 221.998 75.5784ZM220.694 79.202C221.036 79.5437 221.456 79.7145 221.953 79.7145C222.451 79.7145 222.87 79.5437 223.212 79.202C223.554 78.8483 223.725 78.4257 223.725 77.9342C223.725 77.4367 223.554 77.0171 223.212 76.6754C222.87 76.3277 222.451 76.1539 221.953 76.1539C221.456 76.1539 221.036 76.3277 220.694 76.6754C220.353 77.0171 220.182 77.4367 220.182 77.9342C220.182 78.4257 220.353 78.8483 220.694 79.202ZM228.47 78.0421V75.6863H229.063V80.1821H228.47V79.4807C228.134 80.0202 227.63 80.29 226.959 80.29C226.42 80.29 225.991 80.1251 225.673 79.7954C225.356 79.4597 225.197 79.0102 225.197 78.4467V75.6863H225.79V78.4467C225.79 78.8483 225.895 79.16 226.105 79.3818C226.321 79.6036 226.623 79.7145 227.013 79.7145C227.463 79.7145 227.816 79.5736 228.074 79.2919C228.338 79.0102 228.47 78.5936 228.47 78.0421ZM235.597 80.29C234.637 80.29 233.849 79.9753 233.232 79.3459C232.608 78.7105 232.297 77.9402 232.297 77.035C232.297 76.1299 232.608 75.3596 233.232 74.7242C233.849 74.0948 234.637 73.7801 235.597 73.7801C236.172 73.7801 236.702 73.921 237.188 74.2027C237.674 74.4785 238.051 74.8531 238.321 75.3267L237.763 75.6503C237.566 75.2667 237.272 74.961 236.882 74.7332C236.493 74.5054 236.064 74.3915 235.597 74.3915C234.805 74.3915 234.164 74.6463 233.672 75.1558C233.175 75.6713 232.926 76.2977 232.926 77.035C232.926 77.7723 233.175 78.3988 233.672 78.9143C234.164 79.4238 234.805 79.6785 235.597 79.6785C236.064 79.6785 236.493 79.5647 236.882 79.3369C237.272 79.1091 237.566 78.8034 237.763 78.4197L238.321 78.7344C238.063 79.208 237.689 79.5856 237.197 79.8674C236.705 80.1491 236.172 80.29 235.597 80.29ZM242.99 79.6156C242.528 80.0652 241.971 80.29 241.317 80.29C240.652 80.29 240.091 80.0652 239.636 79.6156C239.18 79.16 238.952 78.5996 238.952 77.9342C238.952 77.2688 239.18 76.7113 239.636 76.2618C240.091 75.8062 240.652 75.5784 241.317 75.5784C241.977 75.5784 242.534 75.8062 242.99 76.2618C243.451 76.7113 243.682 77.2688 243.682 77.9342C243.682 78.5936 243.451 79.154 242.99 79.6156ZM240.058 79.202C240.4 79.5437 240.82 79.7145 241.317 79.7145C241.815 79.7145 242.234 79.5437 242.576 79.202C242.918 78.8483 243.089 78.4257 243.089 77.9342C243.089 77.4367 242.918 77.0171 242.576 76.6754C242.234 76.3277 241.815 76.1539 241.317 76.1539C240.82 76.1539 240.4 76.3277 240.058 76.6754C239.717 77.0171 239.546 77.4367 239.546 77.9342C239.546 78.4257 239.717 78.8483 240.058 79.202ZM245.403 74.3016C245.403 74.4215 245.361 74.5234 245.277 74.6073C245.194 74.6913 245.092 74.7332 244.972 74.7332C244.852 74.7332 244.75 74.6913 244.666 74.6073C244.582 74.5234 244.54 74.4215 244.54 74.3016C244.54 74.1817 244.582 74.0798 244.666 73.9959C244.75 73.912 244.852 73.87 244.972 73.87C245.092 73.87 245.194 73.912 245.277 73.9959C245.361 74.0798 245.403 74.1817 245.403 74.3016ZM245.268 80.1821H244.675V75.6863H245.268V80.1821ZM248.632 75.5784C249.171 75.5784 249.6 75.7463 249.918 76.0819C250.235 76.4116 250.394 76.8582 250.394 77.4217V80.1821H249.801V77.4217C249.801 77.0201 249.693 76.7083 249.477 76.4866C249.267 76.2648 248.967 76.1539 248.578 76.1539C248.128 76.1539 247.772 76.2947 247.508 76.5765C247.25 76.8582 247.121 77.2748 247.121 77.8263V80.1821H246.528V75.6863H247.121V76.3877C247.457 75.8482 247.96 75.5784 248.632 75.5784ZM252.009 76.8642C252.009 77.2119 252.318 77.4666 252.935 77.6285C253.109 77.6704 253.223 77.7004 253.277 77.7184C253.331 77.7304 253.436 77.7634 253.592 77.8173C253.754 77.8653 253.864 77.9072 253.924 77.9432C253.99 77.9791 254.08 78.0361 254.194 78.114C254.308 78.186 254.389 78.2609 254.437 78.3388C254.485 78.4107 254.53 78.5067 254.572 78.6265C254.614 78.7404 254.635 78.8633 254.635 78.9952C254.635 79.3788 254.482 79.6905 254.176 79.9303C253.882 80.1701 253.493 80.29 253.007 80.29C252.588 80.29 252.225 80.1971 251.919 80.0112C251.614 79.8194 251.398 79.5676 251.272 79.2559L251.775 78.9592C251.859 79.193 252.009 79.3788 252.225 79.5167C252.447 79.6486 252.708 79.7145 253.007 79.7145C253.313 79.7145 253.562 79.6546 253.754 79.5347C253.945 79.4148 254.041 79.235 254.041 78.9952C254.041 78.6475 253.733 78.3928 253.115 78.2309C252.941 78.189 252.827 78.162 252.773 78.15C252.72 78.132 252.612 78.099 252.45 78.0511C252.294 77.9971 252.183 77.9522 252.117 77.9162C252.057 77.8802 251.97 77.8263 251.856 77.7544C251.742 77.6764 251.662 77.6015 251.614 77.5296C251.566 77.4516 251.521 77.3557 251.479 77.2418C251.437 77.122 251.416 76.9961 251.416 76.8642C251.416 76.4985 251.56 76.1928 251.847 75.9471C252.147 75.7013 252.516 75.5784 252.953 75.5784C253.313 75.5784 253.631 75.6593 253.906 75.8212C254.188 75.983 254.395 76.2078 254.527 76.4956L254.032 76.7833C253.864 76.3637 253.505 76.1539 252.953 76.1539C252.684 76.1539 252.459 76.2168 252.279 76.3427C252.099 76.4686 252.009 76.6424 252.009 76.8642ZM262.179 79.4178L263.285 75.6863H263.897L262.512 80.1821H261.865L260.705 76.5585L259.545 80.1821H258.898L257.513 75.6863H258.124L259.23 79.4178L260.408 75.6863H261.002L262.179 79.4178ZM266.896 75.5784C267.435 75.5784 267.864 75.7463 268.182 76.0819C268.499 76.4116 268.658 76.8582 268.658 77.4217V80.1821H268.065V77.4217C268.065 77.0201 267.957 76.7083 267.741 76.4866C267.531 76.2648 267.231 76.1539 266.842 76.1539C266.392 76.1539 266.036 76.2947 265.772 76.5765C265.514 76.8582 265.385 77.2748 265.385 77.8263V80.1821H264.792V73.888H265.385V76.3877C265.721 75.8482 266.224 75.5784 266.896 75.5784ZM270.534 74.3016C270.534 74.4215 270.492 74.5234 270.408 74.6073C270.324 74.6913 270.222 74.7332 270.102 74.7332C269.982 74.7332 269.881 74.6913 269.797 74.6073C269.713 74.5234 269.671 74.4215 269.671 74.3016C269.671 74.1817 269.713 74.0798 269.797 73.9959C269.881 73.912 269.982 73.87 270.102 73.87C270.222 73.87 270.324 73.912 270.408 73.9959C270.492 74.0798 270.534 74.1817 270.534 74.3016ZM270.399 80.1821H269.806V75.6863H270.399V80.1821ZM272.252 80.1821H271.658V73.6183H272.252V80.1821ZM275.588 75.5784C276.259 75.5784 276.796 75.8152 277.198 76.2887C277.611 76.7563 277.818 77.3108 277.818 77.9522C277.818 77.9821 277.812 78.0751 277.8 78.2309H273.853C273.913 78.6805 274.105 79.0401 274.428 79.3099C274.752 79.5796 275.157 79.7145 275.642 79.7145C276.325 79.7145 276.808 79.4597 277.09 78.9502L277.611 79.2559C277.413 79.5796 277.141 79.8344 276.793 80.0202C276.451 80.2 276.065 80.29 275.633 80.29C274.926 80.29 274.35 80.0682 273.907 79.6246C273.463 79.181 273.241 78.6175 273.241 77.9342C273.241 77.2568 273.46 76.6964 273.898 76.2528C274.335 75.8032 274.899 75.5784 275.588 75.5784ZM275.588 76.1539C275.121 76.1539 274.728 76.2917 274.41 76.5675C274.099 76.8432 273.913 77.2059 273.853 77.6555H277.207C277.141 77.1759 276.958 76.8073 276.658 76.5495C276.346 76.2857 275.99 76.1539 275.588 76.1539ZM283.42 75.5784C284.061 75.5784 284.606 75.8062 285.056 76.2618C285.512 76.7173 285.739 77.2748 285.739 77.9342C285.739 78.5936 285.512 79.151 285.056 79.6066C284.606 80.0622 284.061 80.29 283.42 80.29C282.622 80.29 282.017 79.9603 281.603 79.3009V80.1821H281.01V73.888H281.603V76.5675C282.017 75.9081 282.622 75.5784 283.42 75.5784ZM282.116 79.202C282.457 79.5437 282.877 79.7145 283.375 79.7145C283.872 79.7145 284.292 79.5437 284.633 79.202C284.975 78.8483 285.146 78.4257 285.146 77.9342C285.146 77.4367 284.975 77.0171 284.633 76.6754C284.292 76.3277 283.872 76.1539 283.375 76.1539C282.877 76.1539 282.457 76.3277 282.116 76.6754C281.774 77.0171 281.603 77.4367 281.603 77.9342C281.603 78.4257 281.774 78.8483 282.116 79.202ZM290.494 79.6156C290.032 80.0652 289.475 80.29 288.821 80.29C288.156 80.29 287.595 80.0652 287.14 79.6156C286.684 79.16 286.456 78.5996 286.456 77.9342C286.456 77.2688 286.684 76.7113 287.14 76.2618C287.595 75.8062 288.156 75.5784 288.821 75.5784C289.481 75.5784 290.038 75.8062 290.494 76.2618C290.955 76.7113 291.186 77.2688 291.186 77.9342C291.186 78.5936 290.955 79.154 290.494 79.6156ZM287.562 79.202C287.904 79.5437 288.324 79.7145 288.821 79.7145C289.319 79.7145 289.738 79.5437 290.08 79.202C290.422 78.8483 290.592 78.4257 290.592 77.9342C290.592 77.4367 290.422 77.0171 290.08 76.6754C289.738 76.3277 289.319 76.1539 288.821 76.1539C288.324 76.1539 287.904 76.3277 287.562 76.6754C287.221 77.0171 287.05 77.4367 287.05 77.9342C287.05 78.4257 287.221 78.8483 287.562 79.202ZM295.946 79.6156C295.485 80.0652 294.927 80.29 294.274 80.29C293.609 80.29 293.048 80.0652 292.593 79.6156C292.137 79.16 291.909 78.5996 291.909 77.9342C291.909 77.2688 292.137 76.7113 292.593 76.2618C293.048 75.8062 293.609 75.5784 294.274 75.5784C294.933 75.5784 295.491 75.8062 295.946 76.2618C296.408 76.7113 296.639 77.2688 296.639 77.9342C296.639 78.5936 296.408 79.154 295.946 79.6156ZM293.015 79.202C293.357 79.5437 293.776 79.7145 294.274 79.7145C294.772 79.7145 295.191 79.5437 295.533 79.202C295.874 78.8483 296.045 78.4257 296.045 77.9342C296.045 77.4367 295.874 77.0171 295.533 76.6754C295.191 76.3277 294.772 76.1539 294.274 76.1539C293.776 76.1539 293.357 76.3277 293.015 76.6754C292.674 77.0171 292.503 77.4367 292.503 77.9342C292.503 78.4257 292.674 78.8483 293.015 79.202ZM298.855 77.8443L301.264 80.1821H300.473L298.225 78.0151V80.1821H297.632V73.888H298.225V77.6734L300.365 75.6863H301.174L298.855 77.8443ZM302.803 74.3016C302.803 74.4215 302.761 74.5234 302.677 74.6073C302.593 74.6913 302.492 74.7332 302.372 74.7332C302.252 74.7332 302.15 74.6913 302.066 74.6073C301.982 74.5234 301.94 74.4215 301.94 74.3016C301.94 74.1817 301.982 74.0798 302.066 73.9959C302.15 73.912 302.252 73.87 302.372 73.87C302.492 73.87 302.593 73.912 302.677 73.9959C302.761 74.0798 302.803 74.1817 302.803 74.3016ZM302.668 80.1821H302.075V75.6863H302.668V80.1821ZM306.032 75.5784C306.571 75.5784 307 75.7463 307.317 76.0819C307.635 76.4116 307.794 76.8582 307.794 77.4217V80.1821H307.201V77.4217C307.201 77.0201 307.093 76.7083 306.877 76.4866C306.667 76.2648 306.367 76.1539 305.978 76.1539C305.528 76.1539 305.171 76.2947 304.908 76.5765C304.65 76.8582 304.521 77.2748 304.521 77.8263V80.1821H303.928V75.6863H304.521V76.3877C304.857 75.8482 305.36 75.5784 306.032 75.5784ZM312.808 76.5675V75.6863H313.401V80.0022C313.401 80.6496 313.179 81.1591 312.736 81.5308C312.292 81.9024 311.762 82.0883 311.144 82.0883C310.095 82.0883 309.385 81.7226 309.013 80.9913L309.535 80.6946C309.805 81.2401 310.341 81.5128 311.144 81.5128C311.66 81.5128 312.065 81.3779 312.358 81.1082C312.658 80.8384 312.808 80.4698 312.808 80.0022V79.3009C312.394 79.9603 311.789 80.29 310.992 80.29C310.35 80.29 309.802 80.0622 309.346 79.6066C308.897 79.151 308.672 78.5936 308.672 77.9342C308.672 77.2748 308.897 76.7173 309.346 76.2618C309.802 75.8062 310.35 75.5784 310.992 75.5784C311.789 75.5784 312.394 75.9081 312.808 76.5675ZM309.778 79.202C310.119 79.5437 310.539 79.7145 311.036 79.7145C311.534 79.7145 311.954 79.5437 312.295 79.202C312.637 78.8483 312.808 78.4257 312.808 77.9342C312.808 77.4367 312.637 77.0171 312.295 76.6754C311.954 76.3277 311.534 76.1539 311.036 76.1539C310.539 76.1539 310.119 76.3277 309.778 76.6754C309.436 77.0171 309.265 77.4367 309.265 77.9342C309.265 78.4257 309.436 78.8483 309.778 79.202ZM315.557 79.7774C315.557 79.9153 315.509 80.0322 315.413 80.1281C315.317 80.224 315.2 80.272 315.062 80.272C314.924 80.272 314.808 80.224 314.712 80.1281C314.616 80.0322 314.568 79.9153 314.568 79.7774C314.568 79.6396 314.616 79.5227 314.712 79.4268C314.808 79.3309 314.924 79.2829 315.062 79.2829C315.2 79.2829 315.317 79.3309 315.413 79.4268C315.509 79.5227 315.557 79.6396 315.557 79.7774Z" fill="#1A2B49"/>
<path d="M142.532 47.4953V40.9135H144.659V51.7033H143.04L138.416 45.1061V51.7033H136.289V40.9135H137.907L142.532 47.4953ZM153.134 50.7476C152.353 51.5286 151.387 51.9191 150.236 51.9191C149.085 51.9191 148.12 51.5286 147.339 50.7476C146.558 49.9667 146.167 49.0007 146.167 47.8498C146.167 46.7092 146.558 45.7484 147.339 44.9674C148.13 44.1761 149.096 43.7805 150.236 43.7805C151.377 43.7805 152.343 44.1761 153.134 44.9674C153.925 45.7586 154.321 46.7194 154.321 47.8498C154.321 48.9904 153.925 49.9564 153.134 50.7476ZM148.741 49.3758C149.142 49.7766 149.64 49.9769 150.236 49.9769C150.832 49.9769 151.331 49.7766 151.732 49.3758C152.132 48.975 152.333 48.4664 152.333 47.8498C152.333 47.2332 152.132 46.7246 151.732 46.3238C151.331 45.9231 150.832 45.7227 150.236 45.7227C149.64 45.7227 149.142 45.9231 148.741 46.3238C148.351 46.7349 148.156 47.2435 148.156 47.8498C148.156 48.4561 148.351 48.9648 148.741 49.3758ZM159.963 43.9963V45.9076H158.221V49.1138C158.221 49.3809 158.288 49.5762 158.421 49.6995C158.555 49.8228 158.75 49.8947 159.007 49.9153C159.264 49.9256 159.583 49.9204 159.963 49.8999V51.7033C158.617 51.8574 157.656 51.7341 157.08 51.3334C156.515 50.9223 156.233 50.1825 156.233 49.1138V45.9076H154.892V43.9963H156.233V42.4395L158.221 41.8383V43.9963H159.963ZM171.196 44.9057V43.9963H173.184V51.7033H171.196V50.7939C170.6 51.544 169.762 51.9191 168.683 51.9191C167.656 51.9191 166.772 51.5286 166.032 50.7476C165.303 49.9564 164.938 48.9904 164.938 47.8498C164.938 46.7194 165.303 45.7586 166.032 44.9674C166.772 44.1761 167.656 43.7805 168.683 43.7805C169.762 43.7805 170.6 44.1556 171.196 44.9057ZM167.527 49.422C167.928 49.8228 168.437 50.0232 169.053 50.0232C169.67 50.0232 170.179 49.8228 170.579 49.422C170.99 49.011 171.196 48.4869 171.196 47.8498C171.196 47.2127 170.99 46.6938 170.579 46.293C170.179 45.882 169.67 45.6764 169.053 45.6764C168.437 45.6764 167.928 45.882 167.527 46.293C167.127 46.6938 166.926 47.2127 166.926 47.8498C166.926 48.4869 167.127 49.011 167.527 49.422ZM187.303 40.9135H189.492V51.7033H187.38V44.7053L184.344 49.7149H184.097L181.061 44.7208V51.7033H178.933V40.9135H181.122L184.22 46.0155L187.303 40.9135ZM198.901 48.6667H193.09C193.347 49.6327 194.071 50.1157 195.263 50.1157C196.024 50.1157 196.599 49.8588 196.99 49.345L198.593 50.2698C197.832 51.3693 196.712 51.9191 195.233 51.9191C193.958 51.9191 192.936 51.5338 192.165 50.7631C191.395 49.9924 191.009 49.0213 191.009 47.8498C191.009 46.6989 191.389 45.733 192.15 44.952C192.9 44.171 193.876 43.7805 195.079 43.7805C196.219 43.7805 197.149 44.171 197.868 44.952C198.608 45.733 198.978 46.6989 198.978 47.8498C198.978 48.0656 198.953 48.3379 198.901 48.6667ZM193.059 47.1253H196.99C196.877 46.6218 196.646 46.2365 196.296 45.9693C195.957 45.7021 195.551 45.5685 195.079 45.5685C194.544 45.5685 194.102 45.7073 193.753 45.9847C193.404 46.2519 193.172 46.6321 193.059 47.1253ZM208.89 43.7805C209.774 43.7805 210.478 44.0682 211.002 44.6437C211.536 45.2191 211.804 45.9899 211.804 46.9558V51.7033H209.815V47.0945C209.815 46.6321 209.702 46.2724 209.476 46.0155C209.25 45.7586 208.931 45.6302 208.52 45.6302C208.068 45.6302 207.714 45.7792 207.457 46.0772C207.21 46.3752 207.087 46.8068 207.087 47.372V51.7033H205.098V47.0945C205.098 46.6321 204.985 46.2724 204.759 46.0155C204.533 45.7586 204.215 45.6302 203.804 45.6302C203.362 45.6302 203.007 45.7843 202.74 46.0926C202.483 46.3906 202.355 46.8171 202.355 47.372V51.7033H200.366V43.9963H202.355V44.8132C202.817 44.1248 203.531 43.7805 204.497 43.7805C205.453 43.7805 206.152 44.1504 206.594 44.8903C207.097 44.1504 207.863 43.7805 208.89 43.7805ZM217.978 43.7805C219.016 43.7805 219.899 44.1761 220.629 44.9674C221.369 45.7586 221.739 46.7194 221.739 47.8498C221.739 49.0007 221.369 49.9667 220.629 50.7476C219.91 51.5286 219.026 51.9191 217.978 51.9191C216.899 51.9191 216.066 51.544 215.481 50.7939V51.7033H213.492V40.9135H215.481V44.9057C216.066 44.1556 216.899 43.7805 217.978 43.7805ZM216.082 49.422C216.483 49.8228 216.991 50.0232 217.608 50.0232C218.224 50.0232 218.733 49.8228 219.134 49.422C219.545 49.011 219.75 48.4869 219.75 47.8498C219.75 47.2127 219.545 46.6938 219.134 46.293C218.733 45.882 218.224 45.6764 217.608 45.6764C216.991 45.6764 216.483 45.882 216.082 46.293C215.681 46.6938 215.481 47.2127 215.481 47.8498C215.481 48.4869 215.681 49.011 216.082 49.422ZM230.632 48.6667H224.821C225.078 49.6327 225.803 50.1157 226.995 50.1157C227.755 50.1157 228.331 49.8588 228.721 49.345L230.324 50.2698C229.564 51.3693 228.444 51.9191 226.964 51.9191C225.69 51.9191 224.667 51.5338 223.896 50.7631C223.126 49.9924 222.74 49.0213 222.74 47.8498C222.74 46.6989 223.121 45.733 223.881 44.952C224.631 44.171 225.607 43.7805 226.81 43.7805C227.95 43.7805 228.88 44.171 229.6 44.952C230.339 45.733 230.709 46.6989 230.709 47.8498C230.709 48.0656 230.684 48.3379 230.632 48.6667ZM224.79 47.1253H228.721C228.608 46.6218 228.377 46.2365 228.027 45.9693C227.688 45.7021 227.282 45.5685 226.81 45.5685C226.275 45.5685 225.833 45.7073 225.484 45.9847C225.135 46.2519 224.903 46.6321 224.79 47.1253ZM234.086 43.9963V45.3219C234.261 44.8389 234.559 44.4741 234.98 44.2275C235.401 43.9706 235.884 43.8422 236.429 43.8422V46.0618C235.823 45.9796 235.278 46.1029 234.795 46.4317C234.322 46.7503 234.086 47.2795 234.086 48.0194V51.7033H232.098V43.9963H234.086ZM247.673 40.9135H250.077L246.378 47.4953V51.7033H244.266V47.4953L240.582 40.9135H242.987L245.33 45.4144L247.673 40.9135ZM256.975 48.6667H251.164C251.42 49.6327 252.145 50.1157 253.337 50.1157C254.097 50.1157 254.673 49.8588 255.063 49.345L256.666 50.2698C255.906 51.3693 254.786 51.9191 253.306 51.9191C252.032 51.9191 251.009 51.5338 250.239 50.7631C249.468 49.9924 249.083 49.0213 249.083 47.8498C249.083 46.6989 249.463 45.733 250.223 44.952C250.973 44.171 251.95 43.7805 253.152 43.7805C254.293 43.7805 255.223 44.171 255.942 44.952C256.682 45.733 257.052 46.6989 257.052 47.8498C257.052 48.0656 257.026 48.3379 256.975 48.6667ZM251.133 47.1253H255.063C254.95 46.6218 254.719 46.2365 254.37 45.9693C254.031 45.7021 253.625 45.5685 253.152 45.5685C252.618 45.5685 252.176 45.7073 251.826 45.9847C251.477 46.2519 251.246 46.6321 251.133 47.1253ZM262.622 43.9963V45.9076H260.881V49.1138C260.881 49.3809 260.947 49.5762 261.081 49.6995C261.215 49.8228 261.41 49.8947 261.667 49.9153C261.924 49.9256 262.242 49.9204 262.622 49.8999V51.7033C261.276 51.8574 260.315 51.7341 259.74 51.3334C259.175 50.9223 258.892 50.1825 258.892 49.1138V45.9076H257.551V43.9963H258.892V42.4395L260.881 41.8383V43.9963H262.622ZM268.368 48.081H266.241C266.241 47.6597 266.37 47.2435 266.626 46.8325C266.883 46.4214 267.186 46.0772 267.536 45.7997C268.399 45.101 268.831 44.4639 268.831 43.8884C268.831 43.5287 268.707 43.2513 268.461 43.0561C268.214 42.8608 267.87 42.7632 267.428 42.7632C266.565 42.7632 265.953 43.2205 265.594 44.135L263.775 43.0869C264.083 42.3367 264.571 41.751 265.239 41.3297C265.907 40.9084 266.662 40.6977 267.505 40.6977C268.43 40.6977 269.237 40.97 269.925 41.5147C270.614 42.049 270.958 42.7889 270.958 43.7343C270.958 44.1556 270.865 44.5563 270.68 44.9366C270.506 45.3065 270.29 45.6251 270.033 45.8922C269.786 46.1491 269.535 46.3958 269.278 46.6321C269.031 46.8582 268.815 47.0945 268.63 47.3411C268.456 47.5878 268.368 47.8344 268.368 48.081ZM268.615 50.5935C268.615 50.9532 268.486 51.2614 268.23 51.5183C267.973 51.7752 267.664 51.9037 267.305 51.9037C266.945 51.9037 266.637 51.7752 266.38 51.5183C266.123 51.2614 265.994 50.9532 265.994 50.5935C265.994 50.2338 266.123 49.9256 266.38 49.6687C266.637 49.4118 266.945 49.2833 267.305 49.2833C267.664 49.2833 267.973 49.4118 268.23 49.6687C268.486 49.9256 268.615 50.2338 268.615 50.5935Z" fill="#1A2B49"/>
<path fill-rule="evenodd" clip-rule="evenodd" d="M378.315 29.354L377.416 30.2532L380.37 33.2075L377.416 36.1619L378.315 37.061L382.168 33.2075L378.315 29.354Z" fill="#E1E1E1"/>
<path fill-rule="evenodd" clip-rule="evenodd" d="M384.223 29.354L385.122 30.2532L382.168 33.2075L385.122 36.1619L384.223 37.061L380.369 33.2075L384.223 29.354Z" fill="#E1E1E1"/>
<g clip-path="url(#clip0_22_61)">
<path d="M48.584 54.7091V55.17V81.9985L52.6405 84.5799L64.9945 65.127L48.584 54.7091Z" fill="#243C66"/>
<path d="M105.745 55.17V54.7091L89.334 65.127L101.688 84.5799L105.745 81.9985V55.17Z" fill="#0097DD"/>
<path d="M95.1422 88.5443C98.6455 86.3317 99.5675 81.5376 97.1704 77.8498L94.2202 73.2401C91.8232 69.5524 87.1213 68.3539 83.6179 70.5665L73.1078 77.2045C69.6044 79.4171 68.6825 84.2112 71.0795 87.899L74.0298 92.5087C76.4268 96.1964 81.1287 97.395 84.6321 95.1823L95.1422 88.5443Z" fill="#E29D81"/>
<path d="M93.8512 89.374C95.1419 88.5443 95.5107 86.7926 94.681 85.5019C93.8512 84.2112 92.0995 83.8424 90.8088 84.6721L71.4481 96.9339C70.1574 97.7637 69.7886 99.5154 70.6183 100.806C71.4481 102.097 73.1998 102.466 74.4905 101.636L93.8512 89.374Z" fill="#E29D81"/>
<path d="M71.1714 87.8987L74.1216 92.5084C76.5186 96.1962 81.2205 97.3947 84.7239 95.182L95.234 88.5441C98.7374 86.3314 99.6593 81.5373 97.2623 77.8496L94.3121 73.2399" fill="#D3856A"/>
<path d="M81.8659 84.8575C83.1566 84.0278 83.5254 82.2761 82.6956 80.9854C81.8659 79.6947 80.1142 79.3259 78.8235 80.1556L59.4627 92.5096C58.172 93.3394 57.8032 95.091 58.633 96.3818C59.4627 97.6725 61.2144 98.0412 62.5051 97.2115L81.8659 84.8575Z" fill="#E29D81"/>
<path d="M85.922 88.545C87.2127 87.7152 87.5815 85.9635 86.7518 84.6728C85.922 83.3821 84.1703 83.0133 82.8796 83.8431L63.5189 96.1971C62.2282 97.0268 61.8594 98.7785 62.6891 100.069C63.5189 101.36 65.2706 101.729 66.5613 100.899L85.922 88.545Z" fill="#E29D81"/>
<path d="M81.7736 78.4956C83.0643 77.6659 83.4331 75.9142 82.6033 74.6235C81.7736 73.3328 80.0219 72.964 78.7312 73.7937L59.3705 86.1477C58.0797 86.9775 57.711 88.7291 58.5407 90.0199C59.3705 91.3106 61.1221 91.6794 62.4129 90.8496L81.7736 78.4956Z" fill="#E29D81"/>
<path d="M85.6455 69.6452C85.6455 69.6452 74.7666 71.2125 73.8447 71.4891C73.0149 71.7656 70.4335 78.0348 73.3837 78.7724C76.4261 79.5099 81.2202 75.6378 81.2202 75.6378L85.6455 69.6452Z" fill="#E29D81"/>
<path d="M91.1831 66.1843L88.3042 68.0149L98.9906 84.8211L101.869 82.9905L91.1831 66.1843Z" fill="white"/>
<path d="M91.1774 66.2336L88.3193 68.0774L99.0138 84.8567" fill="#DFE2E5"/>
<path d="M105.745 54.7091L89.334 65.127L101.688 84.5799" fill="#00AEFF"/>
<path d="M94.8655 92.4164L93.1138 91.3101C94.1279 91.4023 95.2343 90.9413 95.7874 90.0194C96.6172 88.7287 96.2484 86.977 94.9577 86.1472L82.0505 77.942C82.9725 76.0059 81.1286 71.8572 80.4832 71.5806C79.6535 71.304 69.6965 69.9211 68.7746 69.7367C65.64 68.8148 62.0444 70.1977 60.1084 73.2401L57.1582 77.8498C54.7611 81.5375 55.6831 86.3316 59.1864 88.5443L60.0162 89.0974C60.1084 89.1896 60.2928 89.374 60.4771 89.4662L79.8379 101.82C81.1286 102.65 82.8803 102.281 83.71 100.99C84.171 100.253 84.2632 99.4232 83.9866 98.6856L87.6744 101.083C88.9651 101.912 90.7168 101.544 91.5465 100.253C92.1919 99.331 92.0997 98.1325 91.5465 97.3027L91.7309 97.3949C93.0216 98.2247 94.7733 97.8559 95.603 96.5652C96.6172 94.9979 96.2484 93.2462 94.8655 92.4164Z" fill="#F9BDA0"/>
<path d="M80.7599 100.714C80.2067 100.345 80.0223 99.6995 80.3911 99.1464L80.7599 98.501C81.1286 97.9479 81.774 97.7635 82.3271 98.1322C82.8803 98.501 83.0647 99.1464 82.6959 99.6995L82.3271 100.345C82.0506 100.898 81.313 101.082 80.7599 100.714Z" fill="#FFE4C7"/>
<path d="M92.7452 96.1963C92.192 95.8275 92.0077 95.1822 92.3764 94.629L92.7452 93.9837C93.114 93.4305 93.7593 93.2461 94.3125 93.6149C94.8657 93.9837 95.0501 94.629 94.6813 95.1822L94.3125 95.8275C94.0359 96.3807 93.2984 96.5651 92.7452 96.1963Z" fill="#FFE4C7"/>
<path d="M88.6886 99.8837C88.1354 99.515 87.951 98.8696 88.3198 98.3165L88.6886 97.6711C89.0573 97.1179 89.7027 96.9335 90.2559 97.3023C90.809 97.6711 90.9934 98.3164 90.6246 98.8696L90.2559 99.515C89.8871 100.068 89.2417 100.253 88.6886 99.8837Z" fill="#FFE4C7"/>
<path d="M92.8375 89.9272C92.2843 89.5584 92.0999 88.913 92.4687 88.3599L92.8375 87.7145C93.2063 87.1613 93.8516 86.977 94.4048 87.3457C94.958 87.7145 95.1423 88.3599 94.7736 88.913L94.497 89.5584C94.1282 90.1115 93.3907 90.2037 92.8375 89.9272Z" fill="#FFE4C7"/>
<path d="M52.4377 83.0311L55.3164 84.8612L66.0002 68.0559L63.1215 66.2258L52.4377 83.0311Z" fill="white"/>
<path d="M63.1505 66.2336L66.0085 68.0774L55.314 84.8567" fill="#DFE2E5"/>
<path d="M48.584 54.7091L64.9945 65.127L52.6405 84.5799" fill="#1A2B49"/>
<path d="M55.0375 72.4105C54.4844 73.3325 53.2859 73.5169 52.4561 72.9637C51.5342 72.4105 51.3498 71.212 51.903 70.3823C52.4561 69.4603 53.6546 69.276 54.4844 69.8291C55.3141 70.3823 55.5907 71.5808 55.0375 72.4105Z" fill="#FFC114"/>
<path d="M94.9577 86.0548L82.0505 77.8495C82.9725 75.9135 81.1286 71.7647 80.4832 71.4882C80.1144 71.3038 77.533 70.935 74.8594 70.5662L71.9092 79.7856L96.1562 87.5299C95.9718 86.9768 95.603 86.4236 94.9577 86.0548Z" fill="#E8AB92"/>
<path d="M82.6955 72.1335C83.5253 73.5164 83.8941 77.112 82.7877 77.7573L73.4761 79.7856C72.3698 80.4309 70.8947 79.7856 70.065 78.4949C69.2352 77.112 69.5118 75.5447 70.6181 74.8993L77.2561 71.0272C78.3624 70.3818 81.7736 70.5662 82.6034 71.8569L82.6955 72.1335Z" fill="#E29D81"/>
</g>
</g>
<defs>
<filter id="filter0_d_22_61" x="-0.000110626" y="-9.53674e-07" width="417.65" height="163.319" filterUnits="userSpaceOnUse" color-interpolation-filters="sRGB">
<feFlood flood-opacity="0" result="BackgroundImageFix"/>
<feColorMatrix in="SourceAlpha" type="matrix" values="0 0 0 0 0 0 0 0 0 0 0 0 0 0 0 0 0 0 127 0" result="hardAlpha"/>
<feOffset dy="3.17336"/>
<feGaussianBlur stdDeviation="9.52007"/>
<feColorMatrix type="matrix" values="0 0 0 0 0.741176 0 0 0 0 0.741176 0 0 0 0 0.741176 0 0 0 0.23 0"/>
<feBlend mode="normal" in2="BackgroundImageFix" result="effect1_dropShadow_22_61"/>
<feBlend mode="normal" in="SourceGraphic" in2="effect1_dropShadow_22_61" result="shape"/>
</filter>
<clipPath id="clip0_22_61">
<rect width="57.1603" height="57.1603" fill="white" transform="translate(48.584 49.9061)"/>
</clipPath>
</defs>
</svg>
